%TF.GenerationSoftware,KiCad,Pcbnew,8.0.4*%
%TF.CreationDate,2024-07-23T18:50:18+08:00*%
%TF.ProjectId,X88C,58383843-2e6b-4696-9361-645f70636258,rev?*%
%TF.SameCoordinates,Original*%
%TF.FileFunction,Profile,NP*%
%FSLAX46Y46*%
G04 Gerber Fmt 4.6, Leading zero omitted, Abs format (unit mm)*
G04 Created by KiCad (PCBNEW 8.0.4) date 2024-07-23 18:50:18*
%MOMM*%
%LPD*%
G01*
G04 APERTURE LIST*
%TA.AperFunction,Profile*%
%ADD10C,0.120000*%
%TD*%
%TA.AperFunction,Profile*%
%ADD11C,0.100000*%
%TD*%
G04 APERTURE END LIST*
D10*
X296833750Y-108988719D02*
G75*
G02*
X303255748Y-108988719I3210999J-498458D01*
G01*
X67489523Y-108986952D02*
X199205924Y-108986220D01*
X199205924Y-108986220D02*
G75*
G02*
X202420318Y-106235891I3207176J-494780D01*
G01*
X155649990Y8497048D02*
X170638585Y8497048D01*
X-7686749Y-39612451D02*
G75*
G02*
X-7686749Y-46112451I0J-3250000D01*
G01*
X-7686749Y-39612451D02*
X-7686749Y4408047D01*
X-3686749Y-108986952D02*
G75*
G02*
X-7686749Y-104986952I-273J3999727D01*
G01*
X96079496Y8497048D02*
X106325694Y8498001D01*
X198474002Y8496048D02*
G75*
G02*
X192050694Y8498001I-3211502J501152D01*
G01*
X18689124Y-108986952D02*
X36079626Y-108986952D01*
X336313250Y4497048D02*
X336313300Y-30087452D01*
X36079626Y-108986952D02*
G75*
G02*
X39291984Y-106235946I3211014J-498468D01*
G01*
X59892101Y-108986948D02*
G75*
G02*
X63101774Y-106235929I3211099J-498552D01*
G01*
X59892126Y-108986952D02*
X47261669Y-108986952D01*
X112749002Y8496048D02*
G75*
G02*
X106325694Y8498001I-3211502J501202D01*
G01*
X296825694Y8498001D02*
X286147280Y8496732D01*
X177042915Y8497048D02*
G75*
G02*
X170638585Y8497048I-3202165J500220D01*
G01*
X-7686749Y4408047D02*
G75*
G02*
X-3597760Y8496048I4000382J87640D01*
G01*
X273446873Y7879045D02*
G75*
G02*
X271859727Y7879010I-793573J-45D01*
G01*
X271066308Y8497048D02*
X258004506Y8497048D01*
X303249002Y8496048D02*
G75*
G02*
X296825694Y8498001I-3211502J501152D01*
G01*
X64279873Y-106235949D02*
G75*
G02*
X67494302Y-108986214I7227J-3245151D01*
G01*
X9558067Y5746995D02*
G75*
G02*
X6320867Y8496925I-25557J3250285D01*
G01*
X315869251Y-108988719D02*
X303255748Y-108988719D01*
X198474002Y8496048D02*
X251599994Y8497048D01*
X12267126Y-108986952D02*
X-3686749Y-108986952D01*
X322299002Y8496048D02*
X332313250Y8497048D01*
X44052019Y-106235950D02*
G75*
G02*
X47271047Y-108985491I8081J-3249650D01*
G01*
X15115913Y8497048D02*
X25363194Y8498001D01*
X44052019Y-106235950D02*
X39291984Y-106235949D01*
X271066308Y8497048D02*
G75*
G02*
X271859764Y7879015I-308J-818748D01*
G01*
X203598224Y-106235949D02*
G75*
G02*
X206807810Y-108986961I-1324J-3249351D01*
G01*
X336313251Y-104986952D02*
X336313300Y-36587452D01*
X282956316Y15081298D02*
G75*
G02*
X283749698Y14287546I-316J-793698D01*
G01*
X-3597760Y8496048D02*
X6320704Y8498001D01*
X96079496Y8497048D02*
G75*
G02*
X89674984Y8497048I-3202256J499640D01*
G01*
X28613204Y5248012D02*
G75*
G02*
X25363212Y8498001I-4J3249988D01*
G01*
X285353528Y7879048D02*
G75*
G02*
X286147280Y8496708I793872J-201348D01*
G01*
X296833750Y-108988719D02*
X206807874Y-108986952D01*
X332313250Y8497047D02*
G75*
G02*
X336313247Y4497048I250J-3999747D01*
G01*
X322299002Y8496048D02*
G75*
G02*
X315875694Y8498001I-3211502J501152D01*
G01*
X282956316Y15081298D02*
X274240625Y15081298D01*
X283749752Y7879013D02*
X283749752Y14287546D01*
X336313300Y-36587452D02*
G75*
G02*
X336313300Y-30087548I0J3249952D01*
G01*
X285353528Y7879048D02*
G75*
G02*
X283749672Y7879013I-801928J-48D01*
G01*
X315869251Y-108988719D02*
G75*
G02*
X322291249Y-108988719I3210999J-498458D01*
G01*
X-7686749Y-104986952D02*
X-7686749Y-46112451D01*
X112749002Y8496048D02*
X149149990Y8497048D01*
X273446873Y14287862D02*
G75*
G02*
X274240625Y15081327I793827J-362D01*
G01*
X273446873Y7879045D02*
X273446873Y14287862D01*
X303249002Y8496048D02*
X315875694Y8498001D01*
X177042915Y8497048D02*
X192050694Y8498001D01*
X33337480Y5247058D02*
X28613204Y5248012D01*
X332313250Y-108986952D02*
X322291249Y-108988719D01*
X36587490Y8497048D02*
X89674984Y8497048D01*
X63101774Y-106235949D02*
X64279873Y-106235949D01*
X258004506Y8497048D02*
G75*
G02*
X251599994Y8497048I-3202256J499640D01*
G01*
X11913705Y5756278D02*
X9558067Y5746995D01*
X336313251Y-104986952D02*
G75*
G02*
X332313250Y-108986951I-3999651J-348D01*
G01*
X155649990Y8497048D02*
G75*
G02*
X149149990Y8497048I-3250000J0D01*
G01*
X36587490Y8497047D02*
G75*
G02*
X33337480Y5247060I-3249990J3D01*
G01*
X12267126Y-108986952D02*
G75*
G02*
X18689124Y-108986952I3210999J-498458D01*
G01*
X202420318Y-106235949D02*
X203598224Y-106235949D01*
X15115913Y8497048D02*
G75*
G02*
X11913705Y5756280I-3202163J500232D01*
G01*
D11*
%TO.C,RGB2*%
X3062501Y-66289659D02*
X3062501Y-67695343D01*
X3968047Y-68492500D02*
X5556952Y-68492500D01*
X5556952Y-65492501D02*
X3968048Y-65492501D01*
X6462499Y-67695343D02*
X6462499Y-66289659D01*
X3013016Y-66072781D02*
G75*
G02*
X3062501Y-66289659I-450505J-216876D01*
G01*
X3013016Y-66072782D02*
G75*
G02*
X3715789Y-65424202I450514J216880D01*
G01*
X3062501Y-67695344D02*
G75*
G02*
X3013016Y-67912221I-499990J-1D01*
G01*
X3715789Y-68560799D02*
G75*
G02*
X3013017Y-67912221I-252258J431700D01*
G01*
X3715789Y-68560799D02*
G75*
G02*
X3968047Y-68492500I252261J-431710D01*
G01*
X3968048Y-65492501D02*
G75*
G02*
X3715789Y-65424202I2J500009D01*
G01*
X5556953Y-68492501D02*
G75*
G02*
X5809211Y-68560800I-3J-500009D01*
G01*
X5809210Y-65424202D02*
G75*
G02*
X5556952Y-65492500I-252260J431712D01*
G01*
X5809211Y-65424204D02*
G75*
G02*
X6511980Y-66072779I252259J-431696D01*
G01*
X6462499Y-66289658D02*
G75*
G02*
X6511987Y-66072783I499701J58D01*
G01*
X6511984Y-67912221D02*
G75*
G02*
X5809211Y-68560800I-450514J-216879D01*
G01*
X6511984Y-67912221D02*
G75*
G02*
X6462524Y-67695343I450516J216821D01*
G01*
%TO.C,RGB1*%
X307862501Y-4377159D02*
X307862501Y-5782843D01*
X308768047Y-6580000D02*
X310356952Y-6580000D01*
X310356952Y-3580001D02*
X308768048Y-3580001D01*
X311262499Y-5782843D02*
X311262499Y-4377159D01*
X307813016Y-4160281D02*
G75*
G02*
X307862501Y-4377159I-450505J-216876D01*
G01*
X307813016Y-4160282D02*
G75*
G02*
X308515789Y-3511702I450514J216880D01*
G01*
X307862501Y-5782844D02*
G75*
G02*
X307813016Y-5999721I-499990J-1D01*
G01*
X308515789Y-6648299D02*
G75*
G02*
X307813017Y-5999721I-252258J431700D01*
G01*
X308515789Y-6648299D02*
G75*
G02*
X308768047Y-6580000I252261J-431710D01*
G01*
X308768048Y-3580001D02*
G75*
G02*
X308515789Y-3511702I2J500009D01*
G01*
X310356953Y-6580001D02*
G75*
G02*
X310609211Y-6648300I-3J-500009D01*
G01*
X310609210Y-3511702D02*
G75*
G02*
X310356952Y-3580000I-252260J431712D01*
G01*
X310609211Y-3511704D02*
G75*
G02*
X311311980Y-4160279I252259J-431696D01*
G01*
X311262499Y-4377158D02*
G75*
G02*
X311311987Y-4160283I499701J58D01*
G01*
X311311984Y-5999721D02*
G75*
G02*
X310609211Y-6648300I-450514J-216879D01*
G01*
X311311984Y-5999721D02*
G75*
G02*
X311262524Y-5782843I450516J216821D01*
G01*
%TD*%
M02*
