%TF.GenerationSoftware,KiCad,Pcbnew,8.0.4*%
%TF.CreationDate,2024-07-23T18:50:18+08:00*%
%TF.ProjectId,X88C,58383843-2e6b-4696-9361-645f70636258,rev?*%
%TF.SameCoordinates,Original*%
%TF.FileFunction,Soldermask,Bot*%
%TF.FilePolarity,Negative*%
%FSLAX46Y46*%
G04 Gerber Fmt 4.6, Leading zero omitted, Abs format (unit mm)*
G04 Created by KiCad (PCBNEW 8.0.4) date 2024-07-23 18:50:18*
%MOMM*%
%LPD*%
G01*
G04 APERTURE LIST*
G04 Aperture macros list*
%AMRoundRect*
0 Rectangle with rounded corners*
0 $1 Rounding radius*
0 $2 $3 $4 $5 $6 $7 $8 $9 X,Y pos of 4 corners*
0 Add a 4 corners polygon primitive as box body*
4,1,4,$2,$3,$4,$5,$6,$7,$8,$9,$2,$3,0*
0 Add four circle primitives for the rounded corners*
1,1,$1+$1,$2,$3*
1,1,$1+$1,$4,$5*
1,1,$1+$1,$6,$7*
1,1,$1+$1,$8,$9*
0 Add four rect primitives between the rounded corners*
20,1,$1+$1,$2,$3,$4,$5,0*
20,1,$1+$1,$4,$5,$6,$7,0*
20,1,$1+$1,$6,$7,$8,$9,0*
20,1,$1+$1,$8,$9,$2,$3,0*%
%AMFreePoly0*
4,1,35,0.337950,0.725020,0.369330,0.718778,0.387713,0.711163,0.414316,0.693388,0.428388,0.679316,0.446163,0.652713,0.453778,0.634330,0.460020,0.602950,0.461000,0.593000,0.461000,-0.593000,0.460020,-0.602950,0.453778,-0.634330,0.446163,-0.652713,0.428388,-0.679316,0.414316,-0.693388,0.387713,-0.711163,0.369330,-0.718778,0.337950,-0.725020,0.328000,-0.726000,0.000000,-0.726000,
-0.036062,-0.711062,-0.446062,-0.301062,-0.461000,-0.265000,-0.461000,0.593000,-0.460020,0.602950,-0.453778,0.634330,-0.446163,0.652713,-0.428388,0.679316,-0.414316,0.693388,-0.387713,0.711163,-0.369330,0.718778,-0.337950,0.725020,-0.328000,0.726000,0.328000,0.726000,0.337950,0.725020,0.337950,0.725020,$1*%
G04 Aperture macros list end*
%ADD10C,0.100000*%
%ADD11C,1.852000*%
%ADD12C,4.089800*%
%ADD13C,2.402000*%
%ADD14C,3.150000*%
%ADD15C,0.752000*%
%ADD16O,1.102000X2.202000*%
%ADD17O,1.102000X1.702000*%
%ADD18C,2.702000*%
%ADD19RoundRect,0.250500X0.400500X-0.250500X0.400500X0.250500X-0.400500X0.250500X-0.400500X-0.250500X0*%
%ADD20RoundRect,0.100500X0.100500X-0.688000X0.100500X0.688000X-0.100500X0.688000X-0.100500X-0.688000X0*%
%ADD21RoundRect,0.100500X0.688000X-0.100500X0.688000X0.100500X-0.688000X0.100500X-0.688000X-0.100500X0*%
%ADD22RoundRect,0.160500X-0.210500X0.160500X-0.210500X-0.160500X0.210500X-0.160500X0.210500X0.160500X0*%
%ADD23RoundRect,0.160500X-0.160500X-0.210500X0.160500X-0.210500X0.160500X0.210500X-0.160500X0.210500X0*%
%ADD24RoundRect,0.165500X0.165500X0.195500X-0.165500X0.195500X-0.165500X-0.195500X0.165500X-0.195500X0*%
%ADD25RoundRect,0.051000X-0.500000X0.850000X-0.500000X-0.850000X0.500000X-0.850000X0.500000X0.850000X0*%
%ADD26RoundRect,0.092200X-0.633800X0.368800X-0.633800X-0.368800X0.633800X-0.368800X0.633800X0.368800X0*%
%ADD27FreePoly0,270.000000*%
%ADD28RoundRect,0.165500X-0.195500X0.165500X-0.195500X-0.165500X0.195500X-0.165500X0.195500X0.165500X0*%
%ADD29RoundRect,0.175500X0.175500X-0.613000X0.175500X0.613000X-0.175500X0.613000X-0.175500X-0.613000X0*%
%ADD30RoundRect,0.165500X0.195500X-0.165500X0.195500X0.165500X-0.195500X0.165500X-0.195500X-0.165500X0*%
%ADD31RoundRect,0.200500X-0.200500X-0.350500X0.200500X-0.350500X0.200500X0.350500X-0.200500X0.350500X0*%
%ADD32RoundRect,0.175500X-0.225500X-0.175500X0.225500X-0.175500X0.225500X0.175500X-0.225500X0.175500X0*%
%ADD33C,1.092600*%
%ADD34C,0.889400*%
%ADD35RoundRect,0.165500X-0.165500X-0.195500X0.165500X-0.195500X0.165500X0.195500X-0.165500X0.195500X0*%
%ADD36RoundRect,0.160500X0.210500X-0.160500X0.210500X0.160500X-0.210500X0.160500X-0.210500X-0.160500X0*%
%ADD37RoundRect,0.267895X0.495605X0.658105X-0.495605X0.658105X-0.495605X-0.658105X0.495605X-0.658105X0*%
G04 APERTURE END LIST*
D10*
%TO.C,G1*%
X162662500Y-102750000D02*
X151662500Y-102750000D01*
X151662500Y-96500000D01*
X162662500Y-96500000D01*
X162662500Y-102750000D01*
G36*
X162662500Y-102750000D02*
G01*
X151662500Y-102750000D01*
X151662500Y-96500000D01*
X162662500Y-96500000D01*
X162662500Y-102750000D01*
G37*
%TD*%
D11*
%TO.C,MX104*%
X233045000Y-100012500D03*
D12*
X238125000Y-100012500D03*
D11*
X243205000Y-100012500D03*
D13*
X234315000Y-97472500D03*
X240665000Y-94932500D03*
%TD*%
D14*
%TO.C,S3*%
X242887500Y-54927500D03*
D12*
X242887500Y-70167500D03*
D14*
X266700000Y-54927500D03*
D12*
X266700000Y-70167500D03*
%TD*%
D11*
%TO.C,MX15*%
X285432500Y0D03*
D12*
X290512500Y0D03*
D11*
X295592500Y0D03*
D13*
X286702500Y2540000D03*
X293052500Y5080000D03*
%TD*%
D11*
%TO.C,MX35*%
X90170000Y-23812500D03*
D12*
X95250000Y-23812500D03*
D11*
X100330000Y-23812500D03*
D13*
X91440000Y-21272500D03*
X97790000Y-18732500D03*
%TD*%
D11*
%TO.C,MX53*%
X99695000Y-42862500D03*
D12*
X104775000Y-42862500D03*
D11*
X109855000Y-42862500D03*
D13*
X100965000Y-40322500D03*
X107315000Y-37782500D03*
%TD*%
D11*
%TO.C,MX78*%
X249713750Y-61912500D03*
D12*
X254793750Y-61912500D03*
D11*
X259873750Y-61912500D03*
D13*
X250983750Y-59372500D03*
X257333750Y-56832500D03*
%TD*%
D11*
%TO.C,MX5*%
X75882500Y0D03*
D12*
X80962500Y0D03*
D11*
X86042500Y0D03*
D13*
X77152500Y2540000D03*
X83502500Y5080000D03*
%TD*%
D11*
%TO.C,MX89*%
X152082500Y-80962500D03*
D12*
X157162500Y-80962500D03*
D11*
X162242500Y-80962500D03*
D13*
X153352500Y-78422500D03*
X159702500Y-75882500D03*
%TD*%
D11*
%TO.C,MX7*%
X118745000Y0D03*
D12*
X123825000Y0D03*
D11*
X128905000Y0D03*
D13*
X120015000Y2540000D03*
X126365000Y5080000D03*
%TD*%
D11*
%TO.C,MX115*%
X235426250Y-100012500D03*
D12*
X240506250Y-100012500D03*
D11*
X245586250Y-100012500D03*
D13*
X236696250Y-97472500D03*
X243046250Y-94932500D03*
%TD*%
D11*
%TO.C,MX109*%
X-2698750Y-100012500D03*
D12*
X2381250Y-100012500D03*
D11*
X7461250Y-100012500D03*
D13*
X-1428750Y-97472500D03*
X4921250Y-94932500D03*
%TD*%
D11*
%TO.C,MX54*%
X118745000Y-42862500D03*
D12*
X123825000Y-42862500D03*
D11*
X128905000Y-42862500D03*
D13*
X120015000Y-40322500D03*
X126365000Y-37782500D03*
%TD*%
D11*
%TO.C,MX68*%
X47307500Y-61912500D03*
D12*
X52387500Y-61912500D03*
D11*
X57467500Y-61912500D03*
D13*
X48577500Y-59372500D03*
X54927500Y-56832500D03*
%TD*%
D11*
%TO.C,MX116*%
X259238750Y-100012500D03*
D12*
X264318750Y-100012500D03*
D11*
X269398750Y-100012500D03*
D13*
X260508750Y-97472500D03*
X266858750Y-94932500D03*
%TD*%
D11*
%TO.C,MX6*%
X99695000Y0D03*
D12*
X104775000Y0D03*
D11*
X109855000Y0D03*
D13*
X100965000Y2540000D03*
X107315000Y5080000D03*
%TD*%
D11*
%TO.C,MX94*%
X304482500Y-80962500D03*
D12*
X309562500Y-80962500D03*
D11*
X314642500Y-80962500D03*
D13*
X305752500Y-78422500D03*
X312102500Y-75882500D03*
%TD*%
D11*
%TO.C,MX81*%
X237807500Y-61912500D03*
D12*
X242887500Y-61912500D03*
D11*
X247967500Y-61912500D03*
D13*
X239077500Y-59372500D03*
X245427500Y-56832500D03*
%TD*%
D11*
%TO.C,MX19*%
X52070000Y0D03*
D12*
X57150000Y0D03*
D11*
X62230000Y0D03*
D13*
X53340000Y2540000D03*
X59690000Y5080000D03*
%TD*%
D11*
%TO.C,MX28*%
X242570000Y0D03*
D12*
X247650000Y0D03*
D11*
X252730000Y0D03*
D13*
X243840000Y2540000D03*
X250190000Y5080000D03*
%TD*%
D11*
%TO.C,MX108*%
X323532500Y-100012500D03*
D12*
X328612500Y-100012500D03*
D11*
X333692500Y-100012500D03*
D13*
X324802500Y-97472500D03*
X331152500Y-94932500D03*
%TD*%
D11*
%TO.C,MX9*%
X156845000Y0D03*
D12*
X161925000Y0D03*
D11*
X167005000Y0D03*
D13*
X158115000Y2540000D03*
X164465000Y5080000D03*
%TD*%
D11*
%TO.C,MX17*%
X323532500Y0D03*
D12*
X328612500Y0D03*
D11*
X333692500Y0D03*
D13*
X324802500Y2540000D03*
X331152500Y5080000D03*
%TD*%
D11*
%TO.C,MX42*%
X223520000Y-23812500D03*
D12*
X228600000Y-23812500D03*
D11*
X233680000Y-23812500D03*
D13*
X224790000Y-21272500D03*
X231140000Y-18732500D03*
%TD*%
D11*
%TO.C,MX82*%
X6826250Y-80962500D03*
D12*
X11906250Y-80962500D03*
D11*
X16986250Y-80962500D03*
D13*
X8096250Y-78422500D03*
X14446250Y-75882500D03*
%TD*%
D11*
%TO.C,MX88*%
X133032500Y-80962500D03*
D12*
X138112500Y-80962500D03*
D11*
X143192500Y-80962500D03*
D13*
X134302500Y-78422500D03*
X140652500Y-75882500D03*
%TD*%
D11*
%TO.C,MX113*%
X187801250Y-100012500D03*
D12*
X192881250Y-100012500D03*
D11*
X197961250Y-100012500D03*
D13*
X189071250Y-97472500D03*
X195421250Y-94932500D03*
%TD*%
D11*
%TO.C,MX34*%
X71120000Y-23812500D03*
D12*
X76200000Y-23812500D03*
D11*
X81280000Y-23812500D03*
D13*
X72390000Y-21272500D03*
X78740000Y-18732500D03*
%TD*%
D11*
%TO.C,MX92*%
X209232500Y-80962500D03*
D12*
X214312500Y-80962500D03*
D11*
X219392500Y-80962500D03*
D13*
X210502500Y-78422500D03*
X216852500Y-75882500D03*
%TD*%
D11*
%TO.C,MX4*%
X56832500Y0D03*
D12*
X61912500Y0D03*
D11*
X66992500Y0D03*
D13*
X58102500Y2540000D03*
X64452500Y5080000D03*
%TD*%
D11*
%TO.C,MX52*%
X80645000Y-42862500D03*
D12*
X85725000Y-42862500D03*
D11*
X90805000Y-42862500D03*
D13*
X81915000Y-40322500D03*
X88265000Y-37782500D03*
%TD*%
D11*
%TO.C,MX37*%
X128270000Y-23812500D03*
D12*
X133350000Y-23812500D03*
D11*
X138430000Y-23812500D03*
D13*
X129540000Y-21272500D03*
X135890000Y-18732500D03*
%TD*%
D11*
%TO.C,MX85*%
X75882500Y-80962500D03*
D12*
X80962500Y-80962500D03*
D11*
X86042500Y-80962500D03*
D13*
X77152500Y-78422500D03*
X83502500Y-75882500D03*
%TD*%
D11*
%TO.C,MX25*%
X175895000Y0D03*
D12*
X180975000Y0D03*
D11*
X186055000Y0D03*
D13*
X177165000Y2540000D03*
X183515000Y5080000D03*
%TD*%
D11*
%TO.C,MX18*%
X33020000Y0D03*
D12*
X38100000Y0D03*
D11*
X43180000Y0D03*
D13*
X34290000Y2540000D03*
X40640000Y5080000D03*
%TD*%
D11*
%TO.C,MX100*%
X23495000Y-100012500D03*
D12*
X28575000Y-100012500D03*
D11*
X33655000Y-100012500D03*
D13*
X24765000Y-97472500D03*
X31115000Y-94932500D03*
%TD*%
D12*
%TO.C,S2*%
X256063750Y-40481250D03*
X256063750Y-64293750D03*
D14*
X271303750Y-40481250D03*
X271303750Y-64293750D03*
%TD*%
D11*
%TO.C,MX38*%
X147320000Y-23812500D03*
D12*
X152400000Y-23812500D03*
D11*
X157480000Y-23812500D03*
D13*
X148590000Y-21272500D03*
X154940000Y-18732500D03*
%TD*%
D11*
%TO.C,MX31*%
X13970000Y-23812500D03*
D12*
X19050000Y-23812500D03*
D11*
X24130000Y-23812500D03*
D13*
X15240000Y-21272500D03*
X21590000Y-18732500D03*
%TD*%
D11*
%TO.C,MX106*%
X285432500Y-100012500D03*
D12*
X290512500Y-100012500D03*
D11*
X295592500Y-100012500D03*
D13*
X286702500Y-97472500D03*
X293052500Y-94932500D03*
%TD*%
D14*
%TO.C,S7*%
X171450000Y-106997500D03*
D12*
X171450000Y-91757500D03*
D14*
X71437500Y-106997500D03*
D12*
X71437500Y-91757500D03*
%TD*%
D11*
%TO.C,MX12*%
X218757500Y0D03*
D12*
X223837500Y0D03*
D11*
X228917500Y0D03*
D13*
X220027500Y2540000D03*
X226377500Y5080000D03*
%TD*%
D11*
%TO.C,MX72*%
X123507500Y-61912500D03*
D12*
X128587500Y-61912500D03*
D11*
X133667500Y-61912500D03*
D13*
X124777500Y-59372500D03*
X131127500Y-56832500D03*
%TD*%
D11*
%TO.C,MX74*%
X161607500Y-61912500D03*
D12*
X166687500Y-61912500D03*
D11*
X171767500Y-61912500D03*
D13*
X162877500Y-59372500D03*
X169227500Y-56832500D03*
%TD*%
D11*
%TO.C,MX90*%
X171132500Y-80962500D03*
D12*
X176212500Y-80962500D03*
D11*
X181292500Y-80962500D03*
D13*
X172402500Y-78422500D03*
X178752500Y-75882500D03*
%TD*%
D11*
%TO.C,MX10*%
X180657500Y0D03*
D12*
X185737500Y0D03*
D11*
X190817500Y0D03*
D13*
X181927500Y2540000D03*
X188277500Y5080000D03*
%TD*%
D11*
%TO.C,MX87*%
X113982500Y-80962500D03*
D12*
X119062500Y-80962500D03*
D11*
X124142500Y-80962500D03*
D13*
X115252500Y-78422500D03*
X121602500Y-75882500D03*
%TD*%
D11*
%TO.C,MX64*%
X323532500Y-42862500D03*
D12*
X328612500Y-42862500D03*
D11*
X333692500Y-42862500D03*
D13*
X324802500Y-40322500D03*
X331152500Y-37782500D03*
%TD*%
D11*
%TO.C,MX2*%
X18732500Y0D03*
D12*
X23812500Y0D03*
D11*
X28892500Y0D03*
D13*
X20002500Y2540000D03*
X26352500Y5080000D03*
%TD*%
D11*
%TO.C,MX70*%
X85407500Y-61912500D03*
D12*
X90487500Y-61912500D03*
D11*
X95567500Y-61912500D03*
D13*
X86677500Y-59372500D03*
X93027500Y-56832500D03*
%TD*%
D11*
%TO.C,MX76*%
X199707500Y-61912500D03*
D12*
X204787500Y-61912500D03*
D11*
X209867500Y-61912500D03*
D13*
X200977500Y-59372500D03*
X207327500Y-56832500D03*
%TD*%
D11*
%TO.C,MX45*%
X304482500Y-23812500D03*
D12*
X309562500Y-23812500D03*
D11*
X314642500Y-23812500D03*
D13*
X305752500Y-21272500D03*
X312102500Y-18732500D03*
%TD*%
D11*
%TO.C,MX16*%
X304482500Y0D03*
D12*
X309562500Y0D03*
D11*
X314642500Y0D03*
D13*
X305752500Y2540000D03*
X312102500Y5080000D03*
%TD*%
D11*
%TO.C,MX48*%
X-317500Y-42862500D03*
D12*
X4762500Y-42862500D03*
D11*
X9842500Y-42862500D03*
D13*
X952500Y-40322500D03*
X7302500Y-37782500D03*
%TD*%
D11*
%TO.C,MX55*%
X137795000Y-42862500D03*
D12*
X142875000Y-42862500D03*
D11*
X147955000Y-42862500D03*
D13*
X139065000Y-40322500D03*
X145415000Y-37782500D03*
%TD*%
D11*
%TO.C,MX3*%
X37782500Y0D03*
D12*
X42862500Y0D03*
D11*
X47942500Y0D03*
D13*
X39052500Y2540000D03*
X45402500Y5080000D03*
%TD*%
D11*
%TO.C,MX63*%
X304482500Y-42862500D03*
D12*
X309562500Y-42862500D03*
D11*
X314642500Y-42862500D03*
D13*
X305752500Y-40322500D03*
X312102500Y-37782500D03*
%TD*%
D11*
%TO.C,MX46*%
X323532500Y-23812500D03*
D12*
X328612500Y-23812500D03*
D11*
X333692500Y-23812500D03*
D13*
X324802500Y-21272500D03*
X331152500Y-18732500D03*
%TD*%
D11*
%TO.C,MX67*%
X28257500Y-61912500D03*
D12*
X33337500Y-61912500D03*
D11*
X38417500Y-61912500D03*
D13*
X29527500Y-59372500D03*
X35877500Y-56832500D03*
%TD*%
D11*
%TO.C,MX59*%
X213995000Y-42862500D03*
D12*
X219075000Y-42862500D03*
D11*
X224155000Y-42862500D03*
D13*
X215265000Y-40322500D03*
X221615000Y-37782500D03*
%TD*%
D11*
%TO.C,MX110*%
X21113750Y-100012500D03*
D12*
X26193750Y-100012500D03*
D11*
X31273750Y-100012500D03*
D13*
X22383750Y-97472500D03*
X28733750Y-94932500D03*
%TD*%
D11*
%TO.C,MX60*%
X233045000Y-42862500D03*
D12*
X238125000Y-42862500D03*
D11*
X243205000Y-42862500D03*
D13*
X234315000Y-40322500D03*
X240665000Y-37782500D03*
%TD*%
D11*
%TO.C,MX32*%
X33020000Y-23812500D03*
D12*
X38100000Y-23812500D03*
D11*
X43180000Y-23812500D03*
D13*
X34290000Y-21272500D03*
X40640000Y-18732500D03*
%TD*%
D11*
%TO.C,MX97*%
X235426250Y-80962500D03*
D12*
X240506250Y-80962500D03*
D11*
X245586250Y-80962500D03*
D13*
X236696250Y-78422500D03*
X243046250Y-75882500D03*
%TD*%
D11*
%TO.C,MX51*%
X61595000Y-42862500D03*
D12*
X66675000Y-42862500D03*
D11*
X71755000Y-42862500D03*
D13*
X62865000Y-40322500D03*
X69215000Y-37782500D03*
%TD*%
D14*
%TO.C,S4*%
X238125000Y-73977500D03*
D12*
X238125000Y-89217500D03*
D14*
X261937500Y-73977500D03*
D12*
X261937500Y-89217500D03*
%TD*%
D11*
%TO.C,MX112*%
X116363750Y-100012500D03*
D12*
X121443750Y-100012500D03*
D11*
X126523750Y-100012500D03*
D13*
X117633750Y-97472500D03*
X123983750Y-94932500D03*
%TD*%
D11*
%TO.C,MX84*%
X56832500Y-80962500D03*
D12*
X61912500Y-80962500D03*
D11*
X66992500Y-80962500D03*
D13*
X58102500Y-78422500D03*
X64452500Y-75882500D03*
%TD*%
D11*
%TO.C,MX75*%
X180657500Y-61912500D03*
D12*
X185737500Y-61912500D03*
D11*
X190817500Y-61912500D03*
D13*
X181927500Y-59372500D03*
X188277500Y-56832500D03*
%TD*%
D11*
%TO.C,MX96*%
X18732500Y-80962500D03*
D12*
X23812500Y-80962500D03*
D11*
X28892500Y-80962500D03*
D13*
X20002500Y-78422500D03*
X26352500Y-75882500D03*
%TD*%
D14*
%TO.C,S5*%
X0Y-73977500D03*
D12*
X0Y-89217500D03*
D14*
X23812500Y-73977500D03*
D12*
X23812500Y-89217500D03*
%TD*%
D11*
%TO.C,MX91*%
X190182500Y-80962500D03*
D12*
X195262500Y-80962500D03*
D11*
X200342500Y-80962500D03*
D13*
X191452500Y-78422500D03*
X197802500Y-75882500D03*
%TD*%
D11*
%TO.C,MX114*%
X211613750Y-100012500D03*
D12*
X216693750Y-100012500D03*
D11*
X221773750Y-100012500D03*
D13*
X212883750Y-97472500D03*
X219233750Y-94932500D03*
%TD*%
D11*
%TO.C,MX43*%
X252095000Y-23812500D03*
D12*
X257175000Y-23812500D03*
D11*
X262255000Y-23812500D03*
D13*
X253365000Y-21272500D03*
X259715000Y-18732500D03*
%TD*%
D11*
%TO.C,MX65*%
X264318750Y-47307500D03*
D12*
X264318750Y-52387500D03*
D11*
X264318750Y-57467500D03*
D13*
X266858750Y-48577500D03*
X269398750Y-54927500D03*
%TD*%
D11*
%TO.C,MX98*%
X261620000Y-80962500D03*
D12*
X266700000Y-80962500D03*
D11*
X271780000Y-80962500D03*
D13*
X262890000Y-78422500D03*
X269240000Y-75882500D03*
%TD*%
D11*
%TO.C,MX80*%
X2063750Y-61912500D03*
D12*
X7143750Y-61912500D03*
D11*
X12223750Y-61912500D03*
D13*
X3333750Y-59372500D03*
X9683750Y-56832500D03*
%TD*%
D11*
%TO.C,MX1*%
X-5080000Y0D03*
D12*
X0Y0D03*
D11*
X5080000Y0D03*
D13*
X-3810000Y2540000D03*
X2540000Y5080000D03*
%TD*%
D11*
%TO.C,MX41*%
X204470000Y-23812500D03*
D12*
X209550000Y-23812500D03*
D11*
X214630000Y-23812500D03*
D13*
X205740000Y-21272500D03*
X212090000Y-18732500D03*
%TD*%
D14*
%TO.C,S6*%
X190500000Y-106997500D03*
D12*
X190500000Y-91757500D03*
D14*
X76200000Y-106997500D03*
D12*
X76200000Y-91757500D03*
%TD*%
D11*
%TO.C,MX66*%
X-2698750Y-61912500D03*
D12*
X2381250Y-61912500D03*
D11*
X7461250Y-61912500D03*
D13*
X-1428750Y-59372500D03*
X4921250Y-56832500D03*
%TD*%
D11*
%TO.C,MX71*%
X104457500Y-61912500D03*
D12*
X109537500Y-61912500D03*
D11*
X114617500Y-61912500D03*
D13*
X105727500Y-59372500D03*
X112077500Y-56832500D03*
%TD*%
D11*
%TO.C,MX93*%
X244951250Y-80962500D03*
D12*
X250031250Y-80962500D03*
D11*
X255111250Y-80962500D03*
D13*
X246221250Y-78422500D03*
X252571250Y-75882500D03*
%TD*%
D11*
%TO.C,MX49*%
X23495000Y-42862500D03*
D12*
X28575000Y-42862500D03*
D11*
X33655000Y-42862500D03*
D13*
X24765000Y-40322500D03*
X31115000Y-37782500D03*
%TD*%
D11*
%TO.C,MX11*%
X199707500Y0D03*
D12*
X204787500Y0D03*
D11*
X209867500Y0D03*
D13*
X200977500Y2540000D03*
X207327500Y5080000D03*
%TD*%
D11*
%TO.C,MX39*%
X166370000Y-23812500D03*
D12*
X171450000Y-23812500D03*
D11*
X176530000Y-23812500D03*
D13*
X167640000Y-21272500D03*
X173990000Y-18732500D03*
%TD*%
D11*
%TO.C,MX69*%
X66357500Y-61912500D03*
D12*
X71437500Y-61912500D03*
D11*
X76517500Y-61912500D03*
D13*
X67627500Y-59372500D03*
X73977500Y-56832500D03*
%TD*%
D11*
%TO.C,MX77*%
X218757500Y-61912500D03*
D12*
X223837500Y-61912500D03*
D11*
X228917500Y-61912500D03*
D13*
X220027500Y-59372500D03*
X226377500Y-56832500D03*
%TD*%
D11*
%TO.C,MX27*%
X223520000Y0D03*
D12*
X228600000Y0D03*
D11*
X233680000Y0D03*
D13*
X224790000Y2540000D03*
X231140000Y5080000D03*
%TD*%
D11*
%TO.C,MX62*%
X285432500Y-42862500D03*
D12*
X290512500Y-42862500D03*
D11*
X295592500Y-42862500D03*
D13*
X286702500Y-40322500D03*
X293052500Y-37782500D03*
%TD*%
D11*
%TO.C,MX57*%
X175895000Y-42862500D03*
D12*
X180975000Y-42862500D03*
D11*
X186055000Y-42862500D03*
D13*
X177165000Y-40322500D03*
X183515000Y-37782500D03*
%TD*%
D11*
%TO.C,MX107*%
X304482500Y-100012500D03*
D12*
X309562500Y-100012500D03*
D11*
X314642500Y-100012500D03*
D13*
X305752500Y-97472500D03*
X312102500Y-94932500D03*
%TD*%
D11*
%TO.C,MX56*%
X156845000Y-42862500D03*
D12*
X161925000Y-42862500D03*
D11*
X167005000Y-42862500D03*
D13*
X158115000Y-40322500D03*
X164465000Y-37782500D03*
%TD*%
D11*
%TO.C,MX111*%
X44926250Y-100012500D03*
D12*
X50006250Y-100012500D03*
D11*
X55086250Y-100012500D03*
D13*
X46196250Y-97472500D03*
X52546250Y-94932500D03*
%TD*%
D11*
%TO.C,MX101*%
X47307500Y-100012500D03*
D12*
X52387500Y-100012500D03*
D11*
X57467500Y-100012500D03*
D13*
X48577500Y-97472500D03*
X54927500Y-94932500D03*
%TD*%
D11*
%TO.C,MX13*%
X237807500Y0D03*
D12*
X242887500Y0D03*
D11*
X247967500Y0D03*
D13*
X239077500Y2540000D03*
X245427500Y5080000D03*
%TD*%
D11*
%TO.C,MX21*%
X90170000Y0D03*
D12*
X95250000Y0D03*
D11*
X100330000Y0D03*
D13*
X91440000Y2540000D03*
X97790000Y5080000D03*
%TD*%
D11*
%TO.C,MX14*%
X261620000Y0D03*
D12*
X266700000Y0D03*
D11*
X271780000Y0D03*
D13*
X262890000Y2540000D03*
X269240000Y5080000D03*
%TD*%
D11*
%TO.C,MX40*%
X185420000Y-23812500D03*
D12*
X190500000Y-23812500D03*
D11*
X195580000Y-23812500D03*
D13*
X186690000Y-21272500D03*
X193040000Y-18732500D03*
%TD*%
D11*
%TO.C,MX26*%
X204470000Y0D03*
D12*
X209550000Y0D03*
D11*
X214630000Y0D03*
D13*
X205740000Y2540000D03*
X212090000Y5080000D03*
%TD*%
D15*
%TO.C,USB1*%
X281496250Y10400000D03*
X275716250Y10400000D03*
D16*
X282926250Y9870000D03*
D17*
X282926250Y14050000D03*
D16*
X274286250Y9870000D03*
D17*
X274286250Y14050000D03*
%TD*%
D11*
%TO.C,MX95*%
X-2698750Y-80962500D03*
D12*
X2381250Y-80962500D03*
D11*
X7461250Y-80962500D03*
D13*
X-1428750Y-78422500D03*
X4921250Y-75882500D03*
%TD*%
D11*
%TO.C,MX50*%
X42545000Y-42862500D03*
D12*
X47625000Y-42862500D03*
D11*
X52705000Y-42862500D03*
D13*
X43815000Y-40322500D03*
X50165000Y-37782500D03*
%TD*%
D11*
%TO.C,MX44*%
X285432500Y-23812500D03*
D12*
X290512500Y-23812500D03*
D11*
X295592500Y-23812500D03*
D13*
X286702500Y-21272500D03*
X293052500Y-18732500D03*
%TD*%
D11*
%TO.C,MX58*%
X194945000Y-42862500D03*
D12*
X200025000Y-42862500D03*
D11*
X205105000Y-42862500D03*
D13*
X196215000Y-40322500D03*
X202565000Y-37782500D03*
%TD*%
D11*
%TO.C,MX8*%
X137795000Y0D03*
D12*
X142875000Y0D03*
D11*
X147955000Y0D03*
D13*
X139065000Y2540000D03*
X145415000Y5080000D03*
%TD*%
D11*
%TO.C,MX99*%
X-317500Y-100012500D03*
D12*
X4762500Y-100012500D03*
D11*
X9842500Y-100012500D03*
D13*
X952500Y-97472500D03*
X7302500Y-94932500D03*
%TD*%
D11*
%TO.C,MX103*%
X209232500Y-100012500D03*
D12*
X214312500Y-100012500D03*
D11*
X219392500Y-100012500D03*
D13*
X210502500Y-97472500D03*
X216852500Y-94932500D03*
%TD*%
D11*
%TO.C,MX36*%
X109220000Y-23812500D03*
D12*
X114300000Y-23812500D03*
D11*
X119380000Y-23812500D03*
D13*
X110490000Y-21272500D03*
X116840000Y-18732500D03*
%TD*%
D11*
%TO.C,MX86*%
X94932500Y-80962500D03*
D12*
X100012500Y-80962500D03*
D11*
X105092500Y-80962500D03*
D13*
X96202500Y-78422500D03*
X102552500Y-75882500D03*
%TD*%
D11*
%TO.C,MX20*%
X71120000Y0D03*
D12*
X76200000Y0D03*
D11*
X81280000Y0D03*
D13*
X72390000Y2540000D03*
X78740000Y5080000D03*
%TD*%
D11*
%TO.C,MX73*%
X142557500Y-61912500D03*
D12*
X147637500Y-61912500D03*
D11*
X152717500Y-61912500D03*
D13*
X143827500Y-59372500D03*
X150177500Y-56832500D03*
%TD*%
D11*
%TO.C,MX30*%
X-5080000Y-23812500D03*
D12*
X0Y-23812500D03*
D11*
X5080000Y-23812500D03*
D13*
X-3810000Y-21272500D03*
X2540000Y-18732500D03*
%TD*%
D11*
%TO.C,MX47*%
X242570000Y-23812500D03*
D12*
X247650000Y-23812500D03*
D11*
X252730000Y-23812500D03*
D13*
X243840000Y-21272500D03*
X250190000Y-18732500D03*
%TD*%
D11*
%TO.C,MX105*%
X256857500Y-100012500D03*
D12*
X261937500Y-100012500D03*
D11*
X267017500Y-100012500D03*
D13*
X258127500Y-97472500D03*
X264477500Y-94932500D03*
%TD*%
D11*
%TO.C,MX33*%
X52070000Y-23812500D03*
D12*
X57150000Y-23812500D03*
D11*
X62230000Y-23812500D03*
D13*
X53340000Y-21272500D03*
X59690000Y-18732500D03*
%TD*%
D11*
%TO.C,MX61*%
X256857500Y-42862500D03*
D12*
X261937500Y-42862500D03*
D11*
X267017500Y-42862500D03*
D18*
X258127500Y-40322500D03*
D13*
X264477500Y-37782500D03*
%TD*%
D11*
%TO.C,MX83*%
X37782500Y-80962500D03*
D12*
X42862500Y-80962500D03*
D11*
X47942500Y-80962500D03*
D13*
X39052500Y-78422500D03*
X45402500Y-75882500D03*
%TD*%
D14*
%TO.C,S1*%
X245268750Y-16827500D03*
D12*
X245268750Y-32067500D03*
D14*
X269081250Y-16827500D03*
D12*
X269081250Y-32067500D03*
%TD*%
D11*
%TO.C,MX79*%
X261620000Y-23812500D03*
D12*
X266700000Y-23812500D03*
D11*
X271780000Y-23812500D03*
D13*
X262890000Y-21272500D03*
X269240000Y-18732500D03*
%TD*%
D11*
%TO.C,MX102*%
X128270000Y-100012500D03*
D12*
X133350000Y-100012500D03*
D11*
X138430000Y-100012500D03*
D13*
X129540000Y-97472500D03*
X135890000Y-94932500D03*
%TD*%
D19*
%TO.C,D55*%
X55562500Y-65150000D03*
X55562500Y-61850000D03*
%TD*%
%TO.C,D82*%
X11906250Y-103250000D03*
X11906250Y-99950000D03*
%TD*%
%TO.C,D7*%
X107950000Y-3237500D03*
X107950000Y62500D03*
%TD*%
%TO.C,D35*%
X331787500Y-27050000D03*
X331787500Y-23750000D03*
%TD*%
D20*
%TO.C,U2*%
X312312500Y-66075000D03*
X311812500Y-66075000D03*
X311312500Y-66075000D03*
X310812500Y-66075000D03*
X310312500Y-66075000D03*
X309812500Y-66075000D03*
X309312500Y-66075000D03*
X308812500Y-66075000D03*
X308312500Y-66075000D03*
X307812500Y-66075000D03*
X307312500Y-66075000D03*
X306812500Y-66075000D03*
D21*
X305400000Y-64662500D03*
X305400000Y-64162500D03*
X305400000Y-63662500D03*
X305400000Y-63162500D03*
X305400000Y-62662500D03*
X305400000Y-62162500D03*
X305400000Y-61662500D03*
X305400000Y-61162500D03*
X305400000Y-60662500D03*
X305400000Y-60162500D03*
X305400000Y-59662500D03*
X305400000Y-59162500D03*
D20*
X306812500Y-57750000D03*
X307312500Y-57750000D03*
X307812500Y-57750000D03*
X308312500Y-57750000D03*
X308812500Y-57750000D03*
X309312500Y-57750000D03*
X309812500Y-57750000D03*
X310312500Y-57750000D03*
X310812500Y-57750000D03*
X311312500Y-57750000D03*
X311812500Y-57750000D03*
X312312500Y-57750000D03*
D21*
X313725000Y-59162500D03*
X313725000Y-59662500D03*
X313725000Y-60162500D03*
X313725000Y-60662500D03*
X313725000Y-61162500D03*
X313725000Y-61662500D03*
X313725000Y-62162500D03*
X313725000Y-62662500D03*
X313725000Y-63162500D03*
X313725000Y-63662500D03*
X313725000Y-64162500D03*
X313725000Y-64662500D03*
%TD*%
D19*
%TO.C,D65*%
X235743750Y-65150000D03*
X235743750Y-61850000D03*
%TD*%
%TO.C,D48*%
X241300000Y-46100000D03*
X241300000Y-42800000D03*
%TD*%
%TO.C,D88*%
X230981250Y-103250000D03*
X230981250Y-99950000D03*
%TD*%
%TO.C,D78*%
X217487500Y-84200000D03*
X217487500Y-80900000D03*
%TD*%
%TO.C,D6*%
X84137500Y-3237500D03*
X84137500Y62500D03*
%TD*%
%TO.C,D20*%
X22225000Y-27050000D03*
X22225000Y-23750000D03*
%TD*%
D22*
%TO.C,RR2*%
X22750000Y-55802500D03*
X22750000Y-56822500D03*
%TD*%
D23*
%TO.C,R3*%
X309052500Y-7937500D03*
X310072500Y-7937500D03*
%TD*%
D19*
%TO.C,D46*%
X203200000Y-46100000D03*
X203200000Y-42800000D03*
%TD*%
%TO.C,D57*%
X93662500Y-65150000D03*
X93662500Y-61850000D03*
%TD*%
%TO.C,D81*%
X312737500Y-84200000D03*
X312737500Y-80900000D03*
%TD*%
%TO.C,D42*%
X127000000Y-46100000D03*
X127000000Y-42800000D03*
%TD*%
%TO.C,D89*%
X254793750Y-103250000D03*
X254793750Y-99950000D03*
%TD*%
%TO.C,D49*%
X252412500Y-46100000D03*
X252412500Y-42800000D03*
%TD*%
%TO.C,D58*%
X112712500Y-65150000D03*
X112712500Y-61850000D03*
%TD*%
%TO.C,D53*%
X10318750Y-65150000D03*
X10318750Y-61850000D03*
%TD*%
%TO.C,D61*%
X169862500Y-65150000D03*
X169862500Y-61850000D03*
%TD*%
%TO.C,D37*%
X31750000Y-46100000D03*
X31750000Y-42800000D03*
%TD*%
D24*
%TO.C,C5*%
X280980000Y-37725000D03*
X280020000Y-37725000D03*
%TD*%
D25*
%TO.C,SWR1*%
X18340625Y-58762500D03*
X18340625Y-65062500D03*
X22140625Y-58762500D03*
X22140625Y-65062500D03*
%TD*%
D19*
%TO.C,D76*%
X179387500Y-84200000D03*
X179387500Y-80900000D03*
%TD*%
D26*
%TO.C,RGB2*%
X7487500Y-67742500D03*
X7487500Y-66242500D03*
X2037500Y-67742500D03*
D27*
X2037500Y-66242500D03*
%TD*%
D22*
%TO.C,R2*%
X280193750Y5272500D03*
X280193750Y4252500D03*
%TD*%
D19*
%TO.C,D38*%
X50800000Y-46100000D03*
X50800000Y-42800000D03*
%TD*%
%TO.C,D66*%
X273843750Y-25462500D03*
X273843750Y-22162500D03*
%TD*%
%TO.C,D28*%
X174625000Y-27050000D03*
X174625000Y-23750000D03*
%TD*%
D28*
%TO.C,C1*%
X303750000Y-58476250D03*
X303750000Y-59436250D03*
%TD*%
D19*
%TO.C,D67*%
X15081250Y-84200000D03*
X15081250Y-80900000D03*
%TD*%
%TO.C,D34*%
X312737500Y-27050000D03*
X312737500Y-23750000D03*
%TD*%
D22*
%TO.C,R1*%
X277018750Y5272500D03*
X277018750Y4252500D03*
%TD*%
D19*
%TO.C,D14*%
X250825000Y-3237500D03*
X250825000Y62500D03*
%TD*%
D29*
%TO.C,QR1*%
X18700000Y-56250000D03*
X16800000Y-56250000D03*
X17750000Y-54375000D03*
%TD*%
D19*
%TO.C,D31*%
X231775000Y-27050000D03*
X231775000Y-23750000D03*
%TD*%
%TO.C,D19*%
X3175000Y-27050000D03*
X3175000Y-23750000D03*
%TD*%
D30*
%TO.C,C3*%
X315500000Y-65436250D03*
X315500000Y-64476250D03*
%TD*%
D29*
%TO.C,U1*%
X281950000Y-35937500D03*
X280050000Y-35937500D03*
X281000000Y-34062500D03*
%TD*%
D19*
%TO.C,D43*%
X146050000Y-46100000D03*
X146050000Y-42800000D03*
%TD*%
%TO.C,D47*%
X222250000Y-46100000D03*
X222250000Y-42800000D03*
%TD*%
%TO.C,D39*%
X69850000Y-46100000D03*
X69850000Y-42800000D03*
%TD*%
%TO.C,D10*%
X165100000Y-3237500D03*
X165100000Y62500D03*
%TD*%
%TO.C,D70*%
X65087500Y-84200000D03*
X65087500Y-80900000D03*
%TD*%
%TO.C,D22*%
X60325000Y-27050000D03*
X60325000Y-23750000D03*
%TD*%
%TO.C,D68*%
X30956250Y-84200000D03*
X30956250Y-80900000D03*
%TD*%
%TO.C,D8*%
X127000000Y-3237500D03*
X127000000Y62500D03*
%TD*%
%TO.C,D9*%
X146050000Y-3237500D03*
X146050000Y62500D03*
%TD*%
%TO.C,D24*%
X98425000Y-27050000D03*
X98425000Y-23750000D03*
%TD*%
%TO.C,D18*%
X331787500Y-3237500D03*
X331787500Y62500D03*
%TD*%
D31*
%TO.C,D1*%
X277606250Y-29325000D03*
D32*
X277606250Y-27625000D03*
X279606250Y-27625000D03*
X279606250Y-29525000D03*
%TD*%
D19*
%TO.C,D51*%
X312737500Y-46100000D03*
X312737500Y-42800000D03*
%TD*%
%TO.C,D3*%
X26987500Y-3237500D03*
X26987500Y62500D03*
%TD*%
%TO.C,D80*%
X269875000Y-84200000D03*
X269875000Y-80900000D03*
%TD*%
%TO.C,D90*%
X293687500Y-103250000D03*
X293687500Y-99950000D03*
%TD*%
%TO.C,D60*%
X150812500Y-65150000D03*
X150812500Y-61850000D03*
%TD*%
%TO.C,D52*%
X331787500Y-46100000D03*
X331787500Y-42800000D03*
%TD*%
%TO.C,D72*%
X103187500Y-84200000D03*
X103187500Y-80900000D03*
%TD*%
%TO.C,D56*%
X74612500Y-65150000D03*
X74612500Y-61850000D03*
%TD*%
%TO.C,D4*%
X46037500Y-3237500D03*
X46037500Y62500D03*
%TD*%
D24*
%TO.C,C8*%
X312980000Y-54706250D03*
X312020000Y-54706250D03*
%TD*%
D19*
%TO.C,D36*%
X7937500Y-46100000D03*
X7937500Y-42800000D03*
%TD*%
%TO.C,D84*%
X59531250Y-103250000D03*
X59531250Y-99950000D03*
%TD*%
%TO.C,D75*%
X160337500Y-84200000D03*
X160337500Y-80900000D03*
%TD*%
D33*
%TO.C,J2*%
X321310000Y-52710000D03*
X322326000Y-57790000D03*
X320294000Y-57790000D03*
D34*
X321945000Y-53980000D03*
X320675000Y-53980000D03*
X321945000Y-55250000D03*
X320675000Y-55250000D03*
X321945000Y-56520000D03*
X320675000Y-56520000D03*
%TD*%
D19*
%TO.C,D26*%
X136525000Y-27050000D03*
X136525000Y-23750000D03*
%TD*%
%TO.C,D54*%
X36512500Y-65150000D03*
X36512500Y-61850000D03*
%TD*%
D28*
%TO.C,C2*%
X302500000Y-58476250D03*
X302500000Y-59436250D03*
%TD*%
D19*
%TO.C,D11*%
X188912500Y-3237500D03*
X188912500Y62500D03*
%TD*%
%TO.C,D5*%
X65087500Y-3237500D03*
X65087500Y62500D03*
%TD*%
%TO.C,D64*%
X227012500Y-65150000D03*
X227012500Y-61850000D03*
%TD*%
%TO.C,D79*%
X253206250Y-84200000D03*
X253206250Y-80900000D03*
%TD*%
%TO.C,D87*%
X207168750Y-103250000D03*
X207168750Y-99950000D03*
%TD*%
D35*
%TO.C,C6*%
X308020000Y-68956250D03*
X308980000Y-68956250D03*
%TD*%
D24*
%TO.C,C9*%
X312980000Y-55956250D03*
X312020000Y-55956250D03*
%TD*%
D28*
%TO.C,CR1*%
X21500000Y-55832500D03*
X21500000Y-56792500D03*
%TD*%
D19*
%TO.C,D85*%
X136525000Y-103250000D03*
X136525000Y-99950000D03*
%TD*%
D35*
%TO.C,C7*%
X308020000Y-67706250D03*
X308980000Y-67706250D03*
%TD*%
D19*
%TO.C,D30*%
X212725000Y-27050000D03*
X212725000Y-23750000D03*
%TD*%
D30*
%TO.C,CR2*%
X15250000Y-56792500D03*
X15250000Y-55832500D03*
%TD*%
D19*
%TO.C,D44*%
X165100000Y-46100000D03*
X165100000Y-42800000D03*
%TD*%
%TO.C,D13*%
X231775000Y-3237500D03*
X231775000Y62500D03*
%TD*%
D35*
%TO.C,C4*%
X281020000Y-32293750D03*
X281980000Y-32293750D03*
%TD*%
D19*
%TO.C,D92*%
X331787500Y-103250000D03*
X331787500Y-99950000D03*
%TD*%
%TO.C,D69*%
X46037500Y-84200000D03*
X46037500Y-80900000D03*
%TD*%
%TO.C,D91*%
X312737500Y-103250000D03*
X312737500Y-99950000D03*
%TD*%
D28*
%TO.C,C10*%
X313895000Y-5830000D03*
X313895000Y-6790000D03*
%TD*%
%TO.C,C11*%
X9250000Y-67770000D03*
X9250000Y-68730000D03*
%TD*%
D19*
%TO.C,D2*%
X3175000Y-3237500D03*
X3175000Y62500D03*
%TD*%
%TO.C,D32*%
X240506250Y-27050000D03*
X240506250Y-23750000D03*
%TD*%
%TO.C,D73*%
X122237500Y-84200000D03*
X122237500Y-80900000D03*
%TD*%
%TO.C,D21*%
X41275000Y-27050000D03*
X41275000Y-23750000D03*
%TD*%
%TO.C,D15*%
X269875000Y-3237500D03*
X269875000Y62500D03*
%TD*%
D36*
%TO.C,RR3*%
X20250000Y-56822500D03*
X20250000Y-55802500D03*
%TD*%
D19*
%TO.C,D71*%
X84137500Y-84200000D03*
X84137500Y-80900000D03*
%TD*%
%TO.C,D27*%
X155575000Y-27050000D03*
X155575000Y-23750000D03*
%TD*%
%TO.C,D16*%
X293687500Y-3237500D03*
X293687500Y62500D03*
%TD*%
%TO.C,D41*%
X107950000Y-46100000D03*
X107950000Y-42800000D03*
%TD*%
%TO.C,D50*%
X293687500Y-46100000D03*
X293687500Y-42800000D03*
%TD*%
%TO.C,D83*%
X35718750Y-103250000D03*
X35718750Y-99950000D03*
%TD*%
%TO.C,D23*%
X79375000Y-27050000D03*
X79375000Y-23750000D03*
%TD*%
%TO.C,D77*%
X192087500Y-84200000D03*
X192087500Y-80900000D03*
%TD*%
%TO.C,D86*%
X185737500Y-103250000D03*
X185737500Y-99950000D03*
%TD*%
%TO.C,D17*%
X316706250Y-3237500D03*
X316706250Y62500D03*
%TD*%
%TO.C,D29*%
X193675000Y-27050000D03*
X193675000Y-23750000D03*
%TD*%
D36*
%TO.C,RR1*%
X15250000Y-59020000D03*
X15250000Y-58000000D03*
%TD*%
D37*
%TO.C,F1*%
X280093750Y-23812500D03*
X277118750Y-23812500D03*
%TD*%
D19*
%TO.C,D40*%
X88900000Y-46100000D03*
X88900000Y-42800000D03*
%TD*%
%TO.C,D12*%
X212725000Y-3237500D03*
X212725000Y62500D03*
%TD*%
%TO.C,D74*%
X141287500Y-84200000D03*
X141287500Y-80900000D03*
%TD*%
%TO.C,D59*%
X131762500Y-65150000D03*
X131762500Y-61850000D03*
%TD*%
D26*
%TO.C,RGB1*%
X312287500Y-5830000D03*
X312287500Y-4330000D03*
X306837500Y-5830000D03*
D27*
X306837500Y-4330000D03*
%TD*%
D19*
%TO.C,D45*%
X184150000Y-46100000D03*
X184150000Y-42800000D03*
%TD*%
%TO.C,D62*%
X188912500Y-65150000D03*
X188912500Y-61850000D03*
%TD*%
%TO.C,D33*%
X293687500Y-27050000D03*
X293687500Y-23750000D03*
%TD*%
%TO.C,D63*%
X207962500Y-65150000D03*
X207962500Y-61850000D03*
%TD*%
%TO.C,D25*%
X117475000Y-27050000D03*
X117475000Y-23750000D03*
%TD*%
M02*
