%TF.GenerationSoftware,KiCad,Pcbnew,8.0.4*%
%TF.CreationDate,2024-07-23T18:50:18+08:00*%
%TF.ProjectId,X88C,58383843-2e6b-4696-9361-645f70636258,rev?*%
%TF.SameCoordinates,Original*%
%TF.FileFunction,Paste,Bot*%
%TF.FilePolarity,Positive*%
%FSLAX46Y46*%
G04 Gerber Fmt 4.6, Leading zero omitted, Abs format (unit mm)*
G04 Created by KiCad (PCBNEW 8.0.4) date 2024-07-23 18:50:18*
%MOMM*%
%LPD*%
G01*
G04 APERTURE LIST*
G04 Aperture macros list*
%AMRoundRect*
0 Rectangle with rounded corners*
0 $1 Rounding radius*
0 $2 $3 $4 $5 $6 $7 $8 $9 X,Y pos of 4 corners*
0 Add a 4 corners polygon primitive as box body*
4,1,4,$2,$3,$4,$5,$6,$7,$8,$9,$2,$3,0*
0 Add four circle primitives for the rounded corners*
1,1,$1+$1,$2,$3*
1,1,$1+$1,$4,$5*
1,1,$1+$1,$6,$7*
1,1,$1+$1,$8,$9*
0 Add four rect primitives between the rounded corners*
20,1,$1+$1,$2,$3,$4,$5,0*
20,1,$1+$1,$4,$5,$6,$7,0*
20,1,$1+$1,$6,$7,$8,$9,0*
20,1,$1+$1,$8,$9,$2,$3,0*%
%AMFreePoly0*
4,1,18,-0.410000,0.593000,-0.403758,0.624380,-0.385983,0.650983,-0.359380,0.668758,-0.328000,0.675000,0.328000,0.675000,0.359380,0.668758,0.385983,0.650983,0.403758,0.624380,0.410000,0.593000,0.410000,-0.593000,0.403758,-0.624380,0.385983,-0.650983,0.359380,-0.668758,0.328000,-0.675000,0.000000,-0.675000,-0.410000,-0.265000,-0.410000,0.593000,-0.410000,0.593000,$1*%
G04 Aperture macros list end*
%ADD10RoundRect,0.225000X0.375000X-0.225000X0.375000X0.225000X-0.375000X0.225000X-0.375000X-0.225000X0*%
%ADD11RoundRect,0.075000X0.075000X-0.662500X0.075000X0.662500X-0.075000X0.662500X-0.075000X-0.662500X0*%
%ADD12RoundRect,0.075000X0.662500X-0.075000X0.662500X0.075000X-0.662500X0.075000X-0.662500X-0.075000X0*%
%ADD13RoundRect,0.135000X-0.185000X0.135000X-0.185000X-0.135000X0.185000X-0.135000X0.185000X0.135000X0*%
%ADD14RoundRect,0.135000X-0.135000X-0.185000X0.135000X-0.185000X0.135000X0.185000X-0.135000X0.185000X0*%
%ADD15RoundRect,0.140000X0.140000X0.170000X-0.140000X0.170000X-0.140000X-0.170000X0.140000X-0.170000X0*%
%ADD16R,1.000000X1.700000*%
%ADD17RoundRect,0.082000X-0.593000X0.328000X-0.593000X-0.328000X0.593000X-0.328000X0.593000X0.328000X0*%
%ADD18FreePoly0,270.000000*%
%ADD19RoundRect,0.140000X-0.170000X0.140000X-0.170000X-0.140000X0.170000X-0.140000X0.170000X0.140000X0*%
%ADD20RoundRect,0.150000X0.150000X-0.587500X0.150000X0.587500X-0.150000X0.587500X-0.150000X-0.587500X0*%
%ADD21RoundRect,0.140000X0.170000X-0.140000X0.170000X0.140000X-0.170000X0.140000X-0.170000X-0.140000X0*%
%ADD22RoundRect,0.175000X-0.175000X-0.325000X0.175000X-0.325000X0.175000X0.325000X-0.175000X0.325000X0*%
%ADD23RoundRect,0.150000X-0.200000X-0.150000X0.200000X-0.150000X0.200000X0.150000X-0.200000X0.150000X0*%
%ADD24RoundRect,0.140000X-0.140000X-0.170000X0.140000X-0.170000X0.140000X0.170000X-0.140000X0.170000X0*%
%ADD25RoundRect,0.135000X0.185000X-0.135000X0.185000X0.135000X-0.185000X0.135000X-0.185000X-0.135000X0*%
%ADD26RoundRect,0.250001X0.462499X0.624999X-0.462499X0.624999X-0.462499X-0.624999X0.462499X-0.624999X0*%
G04 APERTURE END LIST*
D10*
%TO.C,D55*%
X55562500Y-65150000D03*
X55562500Y-61850000D03*
%TD*%
%TO.C,D82*%
X11906250Y-103250000D03*
X11906250Y-99950000D03*
%TD*%
%TO.C,D7*%
X107950000Y-3237500D03*
X107950000Y62500D03*
%TD*%
%TO.C,D35*%
X331787500Y-27050000D03*
X331787500Y-23750000D03*
%TD*%
D11*
%TO.C,U2*%
X312312500Y-66075000D03*
X311812500Y-66075000D03*
X311312500Y-66075000D03*
X310812500Y-66075000D03*
X310312500Y-66075000D03*
X309812500Y-66075000D03*
X309312500Y-66075000D03*
X308812500Y-66075000D03*
X308312500Y-66075000D03*
X307812500Y-66075000D03*
X307312500Y-66075000D03*
X306812500Y-66075000D03*
D12*
X305400000Y-64662500D03*
X305400000Y-64162500D03*
X305400000Y-63662500D03*
X305400000Y-63162500D03*
X305400000Y-62662500D03*
X305400000Y-62162500D03*
X305400000Y-61662500D03*
X305400000Y-61162500D03*
X305400000Y-60662500D03*
X305400000Y-60162500D03*
X305400000Y-59662500D03*
X305400000Y-59162500D03*
D11*
X306812500Y-57750000D03*
X307312500Y-57750000D03*
X307812500Y-57750000D03*
X308312500Y-57750000D03*
X308812500Y-57750000D03*
X309312500Y-57750000D03*
X309812500Y-57750000D03*
X310312500Y-57750000D03*
X310812500Y-57750000D03*
X311312500Y-57750000D03*
X311812500Y-57750000D03*
X312312500Y-57750000D03*
D12*
X313725000Y-59162500D03*
X313725000Y-59662500D03*
X313725000Y-60162500D03*
X313725000Y-60662500D03*
X313725000Y-61162500D03*
X313725000Y-61662500D03*
X313725000Y-62162500D03*
X313725000Y-62662500D03*
X313725000Y-63162500D03*
X313725000Y-63662500D03*
X313725000Y-64162500D03*
X313725000Y-64662500D03*
%TD*%
D10*
%TO.C,D65*%
X235743750Y-65150000D03*
X235743750Y-61850000D03*
%TD*%
%TO.C,D48*%
X241300000Y-46100000D03*
X241300000Y-42800000D03*
%TD*%
%TO.C,D88*%
X230981250Y-103250000D03*
X230981250Y-99950000D03*
%TD*%
%TO.C,D78*%
X217487500Y-84200000D03*
X217487500Y-80900000D03*
%TD*%
%TO.C,D6*%
X84137500Y-3237500D03*
X84137500Y62500D03*
%TD*%
%TO.C,D20*%
X22225000Y-27050000D03*
X22225000Y-23750000D03*
%TD*%
D13*
%TO.C,RR2*%
X22750000Y-55802500D03*
X22750000Y-56822500D03*
%TD*%
D14*
%TO.C,R3*%
X309052500Y-7937500D03*
X310072500Y-7937500D03*
%TD*%
D10*
%TO.C,D46*%
X203200000Y-46100000D03*
X203200000Y-42800000D03*
%TD*%
%TO.C,D57*%
X93662500Y-65150000D03*
X93662500Y-61850000D03*
%TD*%
%TO.C,D81*%
X312737500Y-84200000D03*
X312737500Y-80900000D03*
%TD*%
%TO.C,D42*%
X127000000Y-46100000D03*
X127000000Y-42800000D03*
%TD*%
%TO.C,D89*%
X254793750Y-103250000D03*
X254793750Y-99950000D03*
%TD*%
%TO.C,D49*%
X252412500Y-46100000D03*
X252412500Y-42800000D03*
%TD*%
%TO.C,D58*%
X112712500Y-65150000D03*
X112712500Y-61850000D03*
%TD*%
%TO.C,D53*%
X10318750Y-65150000D03*
X10318750Y-61850000D03*
%TD*%
%TO.C,D61*%
X169862500Y-65150000D03*
X169862500Y-61850000D03*
%TD*%
%TO.C,D37*%
X31750000Y-46100000D03*
X31750000Y-42800000D03*
%TD*%
D15*
%TO.C,C5*%
X280980000Y-37725000D03*
X280020000Y-37725000D03*
%TD*%
D16*
%TO.C,SWR1*%
X18340625Y-58762500D03*
X18340625Y-65062500D03*
X22140625Y-58762500D03*
X22140625Y-65062500D03*
%TD*%
D10*
%TO.C,D76*%
X179387500Y-84200000D03*
X179387500Y-80900000D03*
%TD*%
D17*
%TO.C,RGB2*%
X7487500Y-67742500D03*
X7487500Y-66242500D03*
X2037500Y-67742500D03*
D18*
X2037500Y-66242500D03*
%TD*%
D13*
%TO.C,R2*%
X280193750Y5272500D03*
X280193750Y4252500D03*
%TD*%
D10*
%TO.C,D38*%
X50800000Y-46100000D03*
X50800000Y-42800000D03*
%TD*%
%TO.C,D66*%
X273843750Y-25462500D03*
X273843750Y-22162500D03*
%TD*%
%TO.C,D28*%
X174625000Y-27050000D03*
X174625000Y-23750000D03*
%TD*%
D19*
%TO.C,C1*%
X303750000Y-58476250D03*
X303750000Y-59436250D03*
%TD*%
D10*
%TO.C,D67*%
X15081250Y-84200000D03*
X15081250Y-80900000D03*
%TD*%
%TO.C,D34*%
X312737500Y-27050000D03*
X312737500Y-23750000D03*
%TD*%
D13*
%TO.C,R1*%
X277018750Y5272500D03*
X277018750Y4252500D03*
%TD*%
D10*
%TO.C,D14*%
X250825000Y-3237500D03*
X250825000Y62500D03*
%TD*%
D20*
%TO.C,QR1*%
X18700000Y-56250000D03*
X16800000Y-56250000D03*
X17750000Y-54375000D03*
%TD*%
D10*
%TO.C,D31*%
X231775000Y-27050000D03*
X231775000Y-23750000D03*
%TD*%
%TO.C,D19*%
X3175000Y-27050000D03*
X3175000Y-23750000D03*
%TD*%
D21*
%TO.C,C3*%
X315500000Y-65436250D03*
X315500000Y-64476250D03*
%TD*%
D20*
%TO.C,U1*%
X281950000Y-35937500D03*
X280050000Y-35937500D03*
X281000000Y-34062500D03*
%TD*%
D10*
%TO.C,D43*%
X146050000Y-46100000D03*
X146050000Y-42800000D03*
%TD*%
%TO.C,D47*%
X222250000Y-46100000D03*
X222250000Y-42800000D03*
%TD*%
%TO.C,D39*%
X69850000Y-46100000D03*
X69850000Y-42800000D03*
%TD*%
%TO.C,D10*%
X165100000Y-3237500D03*
X165100000Y62500D03*
%TD*%
%TO.C,D70*%
X65087500Y-84200000D03*
X65087500Y-80900000D03*
%TD*%
%TO.C,D22*%
X60325000Y-27050000D03*
X60325000Y-23750000D03*
%TD*%
%TO.C,D68*%
X30956250Y-84200000D03*
X30956250Y-80900000D03*
%TD*%
%TO.C,D8*%
X127000000Y-3237500D03*
X127000000Y62500D03*
%TD*%
%TO.C,D9*%
X146050000Y-3237500D03*
X146050000Y62500D03*
%TD*%
%TO.C,D24*%
X98425000Y-27050000D03*
X98425000Y-23750000D03*
%TD*%
%TO.C,D18*%
X331787500Y-3237500D03*
X331787500Y62500D03*
%TD*%
D22*
%TO.C,D1*%
X277606250Y-29325000D03*
D23*
X277606250Y-27625000D03*
X279606250Y-27625000D03*
X279606250Y-29525000D03*
%TD*%
D10*
%TO.C,D51*%
X312737500Y-46100000D03*
X312737500Y-42800000D03*
%TD*%
%TO.C,D3*%
X26987500Y-3237500D03*
X26987500Y62500D03*
%TD*%
%TO.C,D80*%
X269875000Y-84200000D03*
X269875000Y-80900000D03*
%TD*%
%TO.C,D90*%
X293687500Y-103250000D03*
X293687500Y-99950000D03*
%TD*%
%TO.C,D60*%
X150812500Y-65150000D03*
X150812500Y-61850000D03*
%TD*%
%TO.C,D52*%
X331787500Y-46100000D03*
X331787500Y-42800000D03*
%TD*%
%TO.C,D72*%
X103187500Y-84200000D03*
X103187500Y-80900000D03*
%TD*%
%TO.C,D56*%
X74612500Y-65150000D03*
X74612500Y-61850000D03*
%TD*%
%TO.C,D4*%
X46037500Y-3237500D03*
X46037500Y62500D03*
%TD*%
D15*
%TO.C,C8*%
X312980000Y-54706250D03*
X312020000Y-54706250D03*
%TD*%
D10*
%TO.C,D36*%
X7937500Y-46100000D03*
X7937500Y-42800000D03*
%TD*%
%TO.C,D84*%
X59531250Y-103250000D03*
X59531250Y-99950000D03*
%TD*%
%TO.C,D75*%
X160337500Y-84200000D03*
X160337500Y-80900000D03*
%TD*%
%TO.C,D26*%
X136525000Y-27050000D03*
X136525000Y-23750000D03*
%TD*%
%TO.C,D54*%
X36512500Y-65150000D03*
X36512500Y-61850000D03*
%TD*%
D19*
%TO.C,C2*%
X302500000Y-58476250D03*
X302500000Y-59436250D03*
%TD*%
D10*
%TO.C,D11*%
X188912500Y-3237500D03*
X188912500Y62500D03*
%TD*%
%TO.C,D5*%
X65087500Y-3237500D03*
X65087500Y62500D03*
%TD*%
%TO.C,D64*%
X227012500Y-65150000D03*
X227012500Y-61850000D03*
%TD*%
%TO.C,D79*%
X253206250Y-84200000D03*
X253206250Y-80900000D03*
%TD*%
%TO.C,D87*%
X207168750Y-103250000D03*
X207168750Y-99950000D03*
%TD*%
D24*
%TO.C,C6*%
X308020000Y-68956250D03*
X308980000Y-68956250D03*
%TD*%
D15*
%TO.C,C9*%
X312980000Y-55956250D03*
X312020000Y-55956250D03*
%TD*%
D19*
%TO.C,CR1*%
X21500000Y-55832500D03*
X21500000Y-56792500D03*
%TD*%
D10*
%TO.C,D85*%
X136525000Y-103250000D03*
X136525000Y-99950000D03*
%TD*%
D24*
%TO.C,C7*%
X308020000Y-67706250D03*
X308980000Y-67706250D03*
%TD*%
D10*
%TO.C,D30*%
X212725000Y-27050000D03*
X212725000Y-23750000D03*
%TD*%
D21*
%TO.C,CR2*%
X15250000Y-56792500D03*
X15250000Y-55832500D03*
%TD*%
D10*
%TO.C,D44*%
X165100000Y-46100000D03*
X165100000Y-42800000D03*
%TD*%
%TO.C,D13*%
X231775000Y-3237500D03*
X231775000Y62500D03*
%TD*%
D24*
%TO.C,C4*%
X281020000Y-32293750D03*
X281980000Y-32293750D03*
%TD*%
D10*
%TO.C,D92*%
X331787500Y-103250000D03*
X331787500Y-99950000D03*
%TD*%
%TO.C,D69*%
X46037500Y-84200000D03*
X46037500Y-80900000D03*
%TD*%
%TO.C,D91*%
X312737500Y-103250000D03*
X312737500Y-99950000D03*
%TD*%
D19*
%TO.C,C10*%
X313895000Y-5830000D03*
X313895000Y-6790000D03*
%TD*%
%TO.C,C11*%
X9250000Y-67770000D03*
X9250000Y-68730000D03*
%TD*%
D10*
%TO.C,D2*%
X3175000Y-3237500D03*
X3175000Y62500D03*
%TD*%
%TO.C,D32*%
X240506250Y-27050000D03*
X240506250Y-23750000D03*
%TD*%
%TO.C,D73*%
X122237500Y-84200000D03*
X122237500Y-80900000D03*
%TD*%
%TO.C,D21*%
X41275000Y-27050000D03*
X41275000Y-23750000D03*
%TD*%
%TO.C,D15*%
X269875000Y-3237500D03*
X269875000Y62500D03*
%TD*%
D25*
%TO.C,RR3*%
X20250000Y-56822500D03*
X20250000Y-55802500D03*
%TD*%
D10*
%TO.C,D71*%
X84137500Y-84200000D03*
X84137500Y-80900000D03*
%TD*%
%TO.C,D27*%
X155575000Y-27050000D03*
X155575000Y-23750000D03*
%TD*%
%TO.C,D16*%
X293687500Y-3237500D03*
X293687500Y62500D03*
%TD*%
%TO.C,D41*%
X107950000Y-46100000D03*
X107950000Y-42800000D03*
%TD*%
%TO.C,D50*%
X293687500Y-46100000D03*
X293687500Y-42800000D03*
%TD*%
%TO.C,D83*%
X35718750Y-103250000D03*
X35718750Y-99950000D03*
%TD*%
%TO.C,D23*%
X79375000Y-27050000D03*
X79375000Y-23750000D03*
%TD*%
%TO.C,D77*%
X192087500Y-84200000D03*
X192087500Y-80900000D03*
%TD*%
%TO.C,D86*%
X185737500Y-103250000D03*
X185737500Y-99950000D03*
%TD*%
%TO.C,D17*%
X316706250Y-3237500D03*
X316706250Y62500D03*
%TD*%
%TO.C,D29*%
X193675000Y-27050000D03*
X193675000Y-23750000D03*
%TD*%
D25*
%TO.C,RR1*%
X15250000Y-59020000D03*
X15250000Y-58000000D03*
%TD*%
D26*
%TO.C,F1*%
X280093750Y-23812500D03*
X277118750Y-23812500D03*
%TD*%
D10*
%TO.C,D40*%
X88900000Y-46100000D03*
X88900000Y-42800000D03*
%TD*%
%TO.C,D12*%
X212725000Y-3237500D03*
X212725000Y62500D03*
%TD*%
%TO.C,D74*%
X141287500Y-84200000D03*
X141287500Y-80900000D03*
%TD*%
%TO.C,D59*%
X131762500Y-65150000D03*
X131762500Y-61850000D03*
%TD*%
D17*
%TO.C,RGB1*%
X312287500Y-5830000D03*
X312287500Y-4330000D03*
X306837500Y-5830000D03*
D18*
X306837500Y-4330000D03*
%TD*%
D10*
%TO.C,D45*%
X184150000Y-46100000D03*
X184150000Y-42800000D03*
%TD*%
%TO.C,D62*%
X188912500Y-65150000D03*
X188912500Y-61850000D03*
%TD*%
%TO.C,D33*%
X293687500Y-27050000D03*
X293687500Y-23750000D03*
%TD*%
%TO.C,D63*%
X207962500Y-65150000D03*
X207962500Y-61850000D03*
%TD*%
%TO.C,D25*%
X117475000Y-27050000D03*
X117475000Y-23750000D03*
%TD*%
M02*
