%TF.GenerationSoftware,KiCad,Pcbnew,8.0.4*%
%TF.CreationDate,2024-07-23T19:32:07+08:00*%
%TF.ProjectId,X88J,5838384a-2e6b-4696-9361-645f70636258,rev?*%
%TF.SameCoordinates,Original*%
%TF.FileFunction,Other,Comment*%
%FSLAX46Y46*%
G04 Gerber Fmt 4.6, Leading zero omitted, Abs format (unit mm)*
G04 Created by KiCad (PCBNEW 8.0.4) date 2024-07-23 19:32:07*
%MOMM*%
%LPD*%
G01*
G04 APERTURE LIST*
%ADD10C,0.150000*%
%ADD11C,0.070000*%
G04 APERTURE END LIST*
D10*
X252865179Y-69590557D02*
X252912798Y-69542938D01*
X252912798Y-69542938D02*
X253008036Y-69495319D01*
X253008036Y-69495319D02*
X253246131Y-69495319D01*
X253246131Y-69495319D02*
X253341369Y-69542938D01*
X253341369Y-69542938D02*
X253388988Y-69590557D01*
X253388988Y-69590557D02*
X253436607Y-69685795D01*
X253436607Y-69685795D02*
X253436607Y-69781033D01*
X253436607Y-69781033D02*
X253388988Y-69923890D01*
X253388988Y-69923890D02*
X252817560Y-70495319D01*
X252817560Y-70495319D02*
X253436607Y-70495319D01*
X253865179Y-70400080D02*
X253912798Y-70447700D01*
X253912798Y-70447700D02*
X253865179Y-70495319D01*
X253865179Y-70495319D02*
X253817560Y-70447700D01*
X253817560Y-70447700D02*
X253865179Y-70400080D01*
X253865179Y-70400080D02*
X253865179Y-70495319D01*
X254293750Y-69590557D02*
X254341369Y-69542938D01*
X254341369Y-69542938D02*
X254436607Y-69495319D01*
X254436607Y-69495319D02*
X254674702Y-69495319D01*
X254674702Y-69495319D02*
X254769940Y-69542938D01*
X254769940Y-69542938D02*
X254817559Y-69590557D01*
X254817559Y-69590557D02*
X254865178Y-69685795D01*
X254865178Y-69685795D02*
X254865178Y-69781033D01*
X254865178Y-69781033D02*
X254817559Y-69923890D01*
X254817559Y-69923890D02*
X254246131Y-70495319D01*
X254246131Y-70495319D02*
X254865178Y-70495319D01*
X255769940Y-69495319D02*
X255293750Y-69495319D01*
X255293750Y-69495319D02*
X255246131Y-69971509D01*
X255246131Y-69971509D02*
X255293750Y-69923890D01*
X255293750Y-69923890D02*
X255388988Y-69876271D01*
X255388988Y-69876271D02*
X255627083Y-69876271D01*
X255627083Y-69876271D02*
X255722321Y-69923890D01*
X255722321Y-69923890D02*
X255769940Y-69971509D01*
X255769940Y-69971509D02*
X255817559Y-70066747D01*
X255817559Y-70066747D02*
X255817559Y-70304842D01*
X255817559Y-70304842D02*
X255769940Y-70400080D01*
X255769940Y-70400080D02*
X255722321Y-70447700D01*
X255722321Y-70447700D02*
X255627083Y-70495319D01*
X255627083Y-70495319D02*
X255388988Y-70495319D01*
X255388988Y-70495319D02*
X255293750Y-70447700D01*
X255293750Y-70447700D02*
X255246131Y-70400080D01*
X256674702Y-69828652D02*
X256674702Y-70495319D01*
X256246131Y-69828652D02*
X256246131Y-70352461D01*
X256246131Y-70352461D02*
X256293750Y-70447700D01*
X256293750Y-70447700D02*
X256388988Y-70495319D01*
X256388988Y-70495319D02*
X256531845Y-70495319D01*
X256531845Y-70495319D02*
X256627083Y-70447700D01*
X256627083Y-70447700D02*
X256674702Y-70400080D01*
X263318750Y-60970319D02*
X263318750Y-59970319D01*
X263747321Y-60922700D02*
X263890178Y-60970319D01*
X263890178Y-60970319D02*
X264128273Y-60970319D01*
X264128273Y-60970319D02*
X264223511Y-60922700D01*
X264223511Y-60922700D02*
X264271130Y-60875080D01*
X264271130Y-60875080D02*
X264318749Y-60779842D01*
X264318749Y-60779842D02*
X264318749Y-60684604D01*
X264318749Y-60684604D02*
X264271130Y-60589366D01*
X264271130Y-60589366D02*
X264223511Y-60541747D01*
X264223511Y-60541747D02*
X264128273Y-60494128D01*
X264128273Y-60494128D02*
X263937797Y-60446509D01*
X263937797Y-60446509D02*
X263842559Y-60398890D01*
X263842559Y-60398890D02*
X263794940Y-60351271D01*
X263794940Y-60351271D02*
X263747321Y-60256033D01*
X263747321Y-60256033D02*
X263747321Y-60160795D01*
X263747321Y-60160795D02*
X263794940Y-60065557D01*
X263794940Y-60065557D02*
X263842559Y-60017938D01*
X263842559Y-60017938D02*
X263937797Y-59970319D01*
X263937797Y-59970319D02*
X264175892Y-59970319D01*
X264175892Y-59970319D02*
X264318749Y-60017938D01*
X264937797Y-59970319D02*
X265128273Y-59970319D01*
X265128273Y-59970319D02*
X265223511Y-60017938D01*
X265223511Y-60017938D02*
X265318749Y-60113176D01*
X265318749Y-60113176D02*
X265366368Y-60303652D01*
X265366368Y-60303652D02*
X265366368Y-60636985D01*
X265366368Y-60636985D02*
X265318749Y-60827461D01*
X265318749Y-60827461D02*
X265223511Y-60922700D01*
X265223511Y-60922700D02*
X265128273Y-60970319D01*
X265128273Y-60970319D02*
X264937797Y-60970319D01*
X264937797Y-60970319D02*
X264842559Y-60922700D01*
X264842559Y-60922700D02*
X264747321Y-60827461D01*
X264747321Y-60827461D02*
X264699702Y-60636985D01*
X264699702Y-60636985D02*
X264699702Y-60303652D01*
X264699702Y-60303652D02*
X264747321Y-60113176D01*
X264747321Y-60113176D02*
X264842559Y-60017938D01*
X264842559Y-60017938D02*
X264937797Y-59970319D01*
X119991369Y-91339319D02*
X119800893Y-91339319D01*
X119800893Y-91339319D02*
X119705655Y-91386938D01*
X119705655Y-91386938D02*
X119658036Y-91434557D01*
X119658036Y-91434557D02*
X119562798Y-91577414D01*
X119562798Y-91577414D02*
X119515179Y-91767890D01*
X119515179Y-91767890D02*
X119515179Y-92148842D01*
X119515179Y-92148842D02*
X119562798Y-92244080D01*
X119562798Y-92244080D02*
X119610417Y-92291700D01*
X119610417Y-92291700D02*
X119705655Y-92339319D01*
X119705655Y-92339319D02*
X119896131Y-92339319D01*
X119896131Y-92339319D02*
X119991369Y-92291700D01*
X119991369Y-92291700D02*
X120038988Y-92244080D01*
X120038988Y-92244080D02*
X120086607Y-92148842D01*
X120086607Y-92148842D02*
X120086607Y-91910747D01*
X120086607Y-91910747D02*
X120038988Y-91815509D01*
X120038988Y-91815509D02*
X119991369Y-91767890D01*
X119991369Y-91767890D02*
X119896131Y-91720271D01*
X119896131Y-91720271D02*
X119705655Y-91720271D01*
X119705655Y-91720271D02*
X119610417Y-91767890D01*
X119610417Y-91767890D02*
X119562798Y-91815509D01*
X119562798Y-91815509D02*
X119515179Y-91910747D01*
X120515179Y-92244080D02*
X120562798Y-92291700D01*
X120562798Y-92291700D02*
X120515179Y-92339319D01*
X120515179Y-92339319D02*
X120467560Y-92291700D01*
X120467560Y-92291700D02*
X120515179Y-92244080D01*
X120515179Y-92244080D02*
X120515179Y-92339319D01*
X120943750Y-91434557D02*
X120991369Y-91386938D01*
X120991369Y-91386938D02*
X121086607Y-91339319D01*
X121086607Y-91339319D02*
X121324702Y-91339319D01*
X121324702Y-91339319D02*
X121419940Y-91386938D01*
X121419940Y-91386938D02*
X121467559Y-91434557D01*
X121467559Y-91434557D02*
X121515178Y-91529795D01*
X121515178Y-91529795D02*
X121515178Y-91625033D01*
X121515178Y-91625033D02*
X121467559Y-91767890D01*
X121467559Y-91767890D02*
X120896131Y-92339319D01*
X120896131Y-92339319D02*
X121515178Y-92339319D01*
X122419940Y-91339319D02*
X121943750Y-91339319D01*
X121943750Y-91339319D02*
X121896131Y-91815509D01*
X121896131Y-91815509D02*
X121943750Y-91767890D01*
X121943750Y-91767890D02*
X122038988Y-91720271D01*
X122038988Y-91720271D02*
X122277083Y-91720271D01*
X122277083Y-91720271D02*
X122372321Y-91767890D01*
X122372321Y-91767890D02*
X122419940Y-91815509D01*
X122419940Y-91815509D02*
X122467559Y-91910747D01*
X122467559Y-91910747D02*
X122467559Y-92148842D01*
X122467559Y-92148842D02*
X122419940Y-92244080D01*
X122419940Y-92244080D02*
X122372321Y-92291700D01*
X122372321Y-92291700D02*
X122277083Y-92339319D01*
X122277083Y-92339319D02*
X122038988Y-92339319D01*
X122038988Y-92339319D02*
X121943750Y-92291700D01*
X121943750Y-92291700D02*
X121896131Y-92244080D01*
X123324702Y-91672652D02*
X123324702Y-92339319D01*
X122896131Y-91672652D02*
X122896131Y-92196461D01*
X122896131Y-92196461D02*
X122943750Y-92291700D01*
X122943750Y-92291700D02*
X123038988Y-92339319D01*
X123038988Y-92339319D02*
X123181845Y-92339319D01*
X123181845Y-92339319D02*
X123277083Y-92291700D01*
X123277083Y-92291700D02*
X123324702Y-92244080D01*
X248102679Y-88640557D02*
X248150298Y-88592938D01*
X248150298Y-88592938D02*
X248245536Y-88545319D01*
X248245536Y-88545319D02*
X248483631Y-88545319D01*
X248483631Y-88545319D02*
X248578869Y-88592938D01*
X248578869Y-88592938D02*
X248626488Y-88640557D01*
X248626488Y-88640557D02*
X248674107Y-88735795D01*
X248674107Y-88735795D02*
X248674107Y-88831033D01*
X248674107Y-88831033D02*
X248626488Y-88973890D01*
X248626488Y-88973890D02*
X248055060Y-89545319D01*
X248055060Y-89545319D02*
X248674107Y-89545319D01*
X249102679Y-89450080D02*
X249150298Y-89497700D01*
X249150298Y-89497700D02*
X249102679Y-89545319D01*
X249102679Y-89545319D02*
X249055060Y-89497700D01*
X249055060Y-89497700D02*
X249102679Y-89450080D01*
X249102679Y-89450080D02*
X249102679Y-89545319D01*
X249483631Y-88545319D02*
X250150297Y-88545319D01*
X250150297Y-88545319D02*
X249721726Y-89545319D01*
X251007440Y-88545319D02*
X250531250Y-88545319D01*
X250531250Y-88545319D02*
X250483631Y-89021509D01*
X250483631Y-89021509D02*
X250531250Y-88973890D01*
X250531250Y-88973890D02*
X250626488Y-88926271D01*
X250626488Y-88926271D02*
X250864583Y-88926271D01*
X250864583Y-88926271D02*
X250959821Y-88973890D01*
X250959821Y-88973890D02*
X251007440Y-89021509D01*
X251007440Y-89021509D02*
X251055059Y-89116747D01*
X251055059Y-89116747D02*
X251055059Y-89354842D01*
X251055059Y-89354842D02*
X251007440Y-89450080D01*
X251007440Y-89450080D02*
X250959821Y-89497700D01*
X250959821Y-89497700D02*
X250864583Y-89545319D01*
X250864583Y-89545319D02*
X250626488Y-89545319D01*
X250626488Y-89545319D02*
X250531250Y-89497700D01*
X250531250Y-89497700D02*
X250483631Y-89450080D01*
X251912202Y-88878652D02*
X251912202Y-89545319D01*
X251483631Y-88878652D02*
X251483631Y-89402461D01*
X251483631Y-89402461D02*
X251531250Y-89497700D01*
X251531250Y-89497700D02*
X251626488Y-89545319D01*
X251626488Y-89545319D02*
X251769345Y-89545319D01*
X251769345Y-89545319D02*
X251864583Y-89497700D01*
X251864583Y-89497700D02*
X251912202Y-89450080D01*
X9977679Y-88640557D02*
X10025298Y-88592938D01*
X10025298Y-88592938D02*
X10120536Y-88545319D01*
X10120536Y-88545319D02*
X10358631Y-88545319D01*
X10358631Y-88545319D02*
X10453869Y-88592938D01*
X10453869Y-88592938D02*
X10501488Y-88640557D01*
X10501488Y-88640557D02*
X10549107Y-88735795D01*
X10549107Y-88735795D02*
X10549107Y-88831033D01*
X10549107Y-88831033D02*
X10501488Y-88973890D01*
X10501488Y-88973890D02*
X9930060Y-89545319D01*
X9930060Y-89545319D02*
X10549107Y-89545319D01*
X10977679Y-89450080D02*
X11025298Y-89497700D01*
X11025298Y-89497700D02*
X10977679Y-89545319D01*
X10977679Y-89545319D02*
X10930060Y-89497700D01*
X10930060Y-89497700D02*
X10977679Y-89450080D01*
X10977679Y-89450080D02*
X10977679Y-89545319D01*
X11406250Y-88640557D02*
X11453869Y-88592938D01*
X11453869Y-88592938D02*
X11549107Y-88545319D01*
X11549107Y-88545319D02*
X11787202Y-88545319D01*
X11787202Y-88545319D02*
X11882440Y-88592938D01*
X11882440Y-88592938D02*
X11930059Y-88640557D01*
X11930059Y-88640557D02*
X11977678Y-88735795D01*
X11977678Y-88735795D02*
X11977678Y-88831033D01*
X11977678Y-88831033D02*
X11930059Y-88973890D01*
X11930059Y-88973890D02*
X11358631Y-89545319D01*
X11358631Y-89545319D02*
X11977678Y-89545319D01*
X12882440Y-88545319D02*
X12406250Y-88545319D01*
X12406250Y-88545319D02*
X12358631Y-89021509D01*
X12358631Y-89021509D02*
X12406250Y-88973890D01*
X12406250Y-88973890D02*
X12501488Y-88926271D01*
X12501488Y-88926271D02*
X12739583Y-88926271D01*
X12739583Y-88926271D02*
X12834821Y-88973890D01*
X12834821Y-88973890D02*
X12882440Y-89021509D01*
X12882440Y-89021509D02*
X12930059Y-89116747D01*
X12930059Y-89116747D02*
X12930059Y-89354842D01*
X12930059Y-89354842D02*
X12882440Y-89450080D01*
X12882440Y-89450080D02*
X12834821Y-89497700D01*
X12834821Y-89497700D02*
X12739583Y-89545319D01*
X12739583Y-89545319D02*
X12501488Y-89545319D01*
X12501488Y-89545319D02*
X12406250Y-89497700D01*
X12406250Y-89497700D02*
X12358631Y-89450080D01*
X13787202Y-88878652D02*
X13787202Y-89545319D01*
X13358631Y-88878652D02*
X13358631Y-89402461D01*
X13358631Y-89402461D02*
X13406250Y-89497700D01*
X13406250Y-89497700D02*
X13501488Y-89545319D01*
X13501488Y-89545319D02*
X13644345Y-89545319D01*
X13644345Y-89545319D02*
X13739583Y-89497700D01*
X13739583Y-89497700D02*
X13787202Y-89450080D01*
X132564286Y-91339319D02*
X133230952Y-91339319D01*
X133230952Y-91339319D02*
X132802381Y-92339319D01*
X134040476Y-91672652D02*
X134040476Y-92339319D01*
X133611905Y-91672652D02*
X133611905Y-92196461D01*
X133611905Y-92196461D02*
X133659524Y-92291700D01*
X133659524Y-92291700D02*
X133754762Y-92339319D01*
X133754762Y-92339319D02*
X133897619Y-92339319D01*
X133897619Y-92339319D02*
X133992857Y-92291700D01*
X133992857Y-92291700D02*
X134040476Y-92244080D01*
X256436905Y-31490557D02*
X256484524Y-31442938D01*
X256484524Y-31442938D02*
X256579762Y-31395319D01*
X256579762Y-31395319D02*
X256817857Y-31395319D01*
X256817857Y-31395319D02*
X256913095Y-31442938D01*
X256913095Y-31442938D02*
X256960714Y-31490557D01*
X256960714Y-31490557D02*
X257008333Y-31585795D01*
X257008333Y-31585795D02*
X257008333Y-31681033D01*
X257008333Y-31681033D02*
X256960714Y-31823890D01*
X256960714Y-31823890D02*
X256389286Y-32395319D01*
X256389286Y-32395319D02*
X257008333Y-32395319D01*
X257865476Y-31728652D02*
X257865476Y-32395319D01*
X257436905Y-31728652D02*
X257436905Y-32252461D01*
X257436905Y-32252461D02*
X257484524Y-32347700D01*
X257484524Y-32347700D02*
X257579762Y-32395319D01*
X257579762Y-32395319D02*
X257722619Y-32395319D01*
X257722619Y-32395319D02*
X257817857Y-32347700D01*
X257817857Y-32347700D02*
X257865476Y-32300080D01*
D11*
X321491407Y-56488095D02*
X321091407Y-56488095D01*
X321491407Y-56259524D02*
X321262836Y-56430953D01*
X321091407Y-56259524D02*
X321319979Y-56488095D01*
X321281883Y-56088095D02*
X321281883Y-55954762D01*
X321491407Y-55897619D02*
X321491407Y-56088095D01*
X321491407Y-56088095D02*
X321091407Y-56088095D01*
X321091407Y-56088095D02*
X321091407Y-55897619D01*
X321281883Y-55726190D02*
X321281883Y-55592857D01*
X321491407Y-55535714D02*
X321491407Y-55726190D01*
X321491407Y-55726190D02*
X321091407Y-55726190D01*
X321091407Y-55726190D02*
X321091407Y-55535714D01*
X321491407Y-55364285D02*
X321091407Y-55364285D01*
X321091407Y-55364285D02*
X321091407Y-55211904D01*
X321091407Y-55211904D02*
X321110455Y-55173809D01*
X321110455Y-55173809D02*
X321129502Y-55154762D01*
X321129502Y-55154762D02*
X321167598Y-55135714D01*
X321167598Y-55135714D02*
X321224740Y-55135714D01*
X321224740Y-55135714D02*
X321262836Y-55154762D01*
X321262836Y-55154762D02*
X321281883Y-55173809D01*
X321281883Y-55173809D02*
X321300931Y-55211904D01*
X321300931Y-55211904D02*
X321300931Y-55364285D01*
X321091407Y-54888095D02*
X321091407Y-54811904D01*
X321091407Y-54811904D02*
X321110455Y-54773809D01*
X321110455Y-54773809D02*
X321148550Y-54735714D01*
X321148550Y-54735714D02*
X321224740Y-54716666D01*
X321224740Y-54716666D02*
X321358074Y-54716666D01*
X321358074Y-54716666D02*
X321434264Y-54735714D01*
X321434264Y-54735714D02*
X321472360Y-54773809D01*
X321472360Y-54773809D02*
X321491407Y-54811904D01*
X321491407Y-54811904D02*
X321491407Y-54888095D01*
X321491407Y-54888095D02*
X321472360Y-54926190D01*
X321472360Y-54926190D02*
X321434264Y-54964285D01*
X321434264Y-54964285D02*
X321358074Y-54983333D01*
X321358074Y-54983333D02*
X321224740Y-54983333D01*
X321224740Y-54983333D02*
X321148550Y-54964285D01*
X321148550Y-54964285D02*
X321110455Y-54926190D01*
X321110455Y-54926190D02*
X321091407Y-54888095D01*
X321091407Y-54545237D02*
X321415217Y-54545237D01*
X321415217Y-54545237D02*
X321453312Y-54526190D01*
X321453312Y-54526190D02*
X321472360Y-54507142D01*
X321472360Y-54507142D02*
X321491407Y-54469047D01*
X321491407Y-54469047D02*
X321491407Y-54392856D01*
X321491407Y-54392856D02*
X321472360Y-54354761D01*
X321472360Y-54354761D02*
X321453312Y-54335714D01*
X321453312Y-54335714D02*
X321415217Y-54316666D01*
X321415217Y-54316666D02*
X321091407Y-54316666D01*
X321091407Y-54183332D02*
X321091407Y-53954761D01*
X321491407Y-54069047D02*
X321091407Y-54069047D01*
M02*
