M48
; DRILL file {KiCad 8.0.4} date 2024-07-23T19:32:07+0800
; FORMAT={-:-/ absolute / inch / decimal}
; #@! TF.CreationDate,2024-07-23T19:32:07+08:00
; #@! TF.GenerationSoftware,Kicad,Pcbnew,8.0.4
; #@! TF.FileFunction,Plated,1,2,PTH
FMAT,2
INCH
; #@! TA.AperFunction,Plated,PTH,ViaDrill
T1C0.0157
; #@! TA.AperFunction,Plated,PTH,ComponentDrill
T2C0.0600
%
G90
G05
T1
X0.0197Y-2.6083
X0.0197Y-2.6673
X0.3937Y-0.3839
X0.3937Y-1.1024
X0.4035Y-2.6673
X0.4035Y-2.7067
X0.4375Y-0.3543
X0.471Y-0.3878
X0.4724Y-0.315
X0.4936Y-1.0979
X0.502Y-0.4232
X0.502Y-2.5984
X0.5315Y-1.1319
X0.5709Y-2.7756
X0.5974Y-2.3622
X0.6004Y-2.4114
X0.6004Y-2.687
X0.6594Y-1.1319
X0.7972Y-2.1635
X0.8957Y-2.1635
X1.2697Y-1.8799
X1.3386Y-1.9094
X1.4764Y-4.1339
X1.5Y-4.096
X1.5059Y-2.6476
X1.5354Y-4.1275
X1.5551Y-1.9094
X1.5551Y-2.5295
X1.5938Y-1.8465
X1.5945Y-1.7815
X1.624Y-2.6673
X1.6297Y-1.876
X1.6535Y-2.5295
X1.6732Y-1.8602
X1.8209Y-4.1634
X2.7188Y-4.1719
X2.9062Y-4.1719
X3.0938Y-4.1719
X5.2559Y-3.3858
X5.2995Y-3.376
X5.3445Y-3.4055
X6.0039Y-3.4055
X6.0495Y-3.3957
X6.0925Y-3.4252
X6.6562Y-4.1719
X6.752Y-3.4252
X6.7995Y-3.4154
X6.8406Y-3.4449
X6.8438Y-4.1719
X7.4062Y-4.1719
X7.5938Y-4.1719
X9.2913Y-3.435
X9.5177Y-3.435
X9.5276Y-3.5728
X10.2264Y-3.435
X10.3125Y-1.5625
X10.4375Y-1.6875
X10.4626Y-3.435
X10.4724Y-3.5728
X10.5312Y-2.0625
X10.6988Y-3.315
X10.7382Y-2.0768
X10.7382Y-3.2776
X10.7812Y-0.9375
X10.7812Y-2.0669
X10.8169Y-1.565
X10.8169Y-1.998
X10.8438Y-0.9375
X10.8465Y-1.5256
X10.8585Y-0.4921
X10.8585Y-0.6299
X10.8858Y-1.065
X10.8858Y-1.1122
X10.9154Y-1.0236
X10.9252Y-1.3091
X10.9252Y-1.3976
X10.9252Y-1.4862
X10.9252Y-1.565
X10.9252Y-1.6634
X10.9252Y-1.752
X10.9274Y-1.8005
X10.9294Y-1.2106
X10.9449Y-1.8406
X10.9449Y-3.315
X10.9547Y-3.2677
X10.9547Y-3.3661
X11.0039Y-1.9783
X11.0236Y-1.5256
X11.0278Y-0.6496
X11.0278Y-0.7776
X11.0335Y-1.5748
X11.0335Y-1.6634
X11.0335Y-1.752
X11.0535Y-1.8009
X11.0728Y-1.065
X11.079Y-0.4921
X11.079Y-0.6299
X11.0827Y-0.3878
X11.0827Y-0.4331
X11.0925Y-1.0236
X11.0925Y-1.1122
X11.1024Y-1.4852
X11.122Y-0.315
X11.1417Y-1.2714
X11.1614Y-0.3937
X11.1614Y-0.4331
X11.25Y-1.7618
X11.25Y-1.9783
X11.25Y-2.0472
X11.25Y-2.3327
X11.25Y-2.5787
X11.25Y-2.6969
X11.2995Y-2.687
X11.3484Y-1.7618
X11.3484Y-1.9783
X11.3484Y-2.0472
X11.3484Y-2.3327
X11.3484Y-2.5787
X11.3484Y-2.7165
X11.7618Y-3.3563
X11.7618Y-4.1634
X11.7717Y-0.2657
X11.7717Y-1.9783
X11.7717Y-2.8248
X11.7717Y-4.0256
X11.7815Y-1.7815
X11.811Y-0.187
X11.811Y-2.0374
X11.811Y-2.7461
X11.811Y-2.7953
X11.811Y-3.3563
X11.811Y-4.0979
X11.8125Y-0.2295
X11.8125Y-1.9783
X11.8504Y-0.2657
X11.8504Y-3.3957
X11.8504Y-4.0256
X11.8701Y-4.1634
X11.9094Y-1.7815
X11.9094Y-2.0374
X11.9094Y-2.2638
X11.9587Y-2.2638
X11.998Y-0.1673
X12.0866Y-2.7165
X12.0908Y-2.3489
X12.1088Y-2.2109
X12.126Y-2.7559
X12.158Y-2.5487
X12.2761Y-2.3263
X12.2987Y-2.5261
X12.3581Y-0.3051
X12.3622Y-2.0472
X12.3622Y-2.0965
X12.3622Y-2.1555
X12.3622Y-2.2047
X12.4213Y-2.6181
X12.4508Y-0.1772
X12.4606Y-2.0571
X12.4606Y-2.1555
X12.4606Y-2.5762
X12.4916Y-0.1772
X12.4916Y-2.3228
X12.5Y-4.0256
X12.5212Y-1.065
X12.5212Y-2.2933
X12.5394Y-0.1673
X12.5394Y-2.5005
X12.5394Y-4.1275
X12.5591Y-2.0177
X12.5591Y-2.2244
X12.5591Y-2.3228
X12.5689Y-2.528
X12.5689Y-4.065
X12.5787Y-4.1043
X12.5984Y-2.5689
X12.5984Y-4.0256
X12.6083Y-2.5
X12.7264Y-2.2257
X12.7264Y-2.3524
X12.7264Y-2.4606
X12.7264Y-3.3169
X12.7657Y-2.1752
X12.7657Y-3.3563
X12.7854Y-3.3957
X12.8314Y-2.4311
X12.8839Y-2.3524
X12.8839Y-2.4311
T2
X-0.15Y0.1
X-0.15Y-0.8375
X-0.0563Y-2.3375
X-0.0563Y-3.0875
X-0.0563Y-3.8375
X0.0375Y-1.5875
X0.0375Y-3.8375
X0.1Y0.2
X0.1Y-0.7375
X0.1313Y-2.3375
X0.1938Y-2.2375
X0.1938Y-2.9875
X0.1938Y-3.7375
X0.2875Y-1.4875
X0.2875Y-3.7375
X0.3187Y-3.0875
X0.3812Y-2.2375
X0.5687Y-2.9875
X0.6Y-0.8375
X0.7875Y0.1
X0.7875Y-3.0875
X0.85Y-0.7375
X0.8812Y-3.8375
X0.975Y-1.5875
X0.975Y-3.8375
X1.0375Y0.2
X1.0375Y-2.9875
X1.1312Y-3.7375
X1.1625Y-2.3375
X1.225Y-1.4875
X1.225Y-3.7375
X1.35Y0.1
X1.35Y-0.8375
X1.4125Y-2.2375
X1.5375Y0.1
X1.5375Y-3.0875
X1.6Y0.2
X1.6Y-0.7375
X1.725Y-1.5875
X1.7875Y0.2
X1.7875Y-2.9875
X1.8187Y-3.8375
X1.9125Y-2.3375
X1.9125Y-3.8375
X1.975Y-1.4875
X2.0688Y-3.7375
X2.1Y0.1
X2.1Y-0.8375
X2.1625Y-2.2375
X2.1625Y-3.7375
X2.2875Y0.1
X2.2875Y-3.0875
X2.35Y0.2
X2.35Y-0.7375
X2.475Y-1.5875
X2.5375Y0.2
X2.5375Y-2.9875
X2.6625Y-2.3375
X2.725Y-1.4875
X2.85Y0.1
X2.85Y-0.8375
X2.9125Y-2.2375
X3.0375Y0.1
X3.0375Y-3.0875
X3.1Y0.2
X3.1Y-0.7375
X3.225Y-1.5875
X3.2875Y0.2
X3.2875Y-2.9875
X3.4125Y-2.3375
X3.475Y-1.4875
X3.6Y0.1
X3.6Y-0.8375
X3.6625Y-2.2375
X3.7875Y-3.0875
X3.85Y0.2
X3.85Y-0.7375
X3.975Y0.1
X3.975Y-1.5875
X4.0375Y-2.9875
X4.1625Y-2.3375
X4.225Y0.2
X4.225Y-1.4875
X4.35Y-0.8375
X4.4125Y-2.2375
X4.5375Y-3.0875
X4.6Y-0.7375
X4.6312Y-3.8375
X4.725Y0.1
X4.725Y-1.5875
X4.7875Y-2.9875
X4.8812Y-3.7375
X4.9125Y-2.3375
X4.975Y0.2
X4.975Y-1.4875
X5.1Y-0.8375
X5.1Y-3.8375
X5.1625Y-2.2375
X5.2875Y-3.0875
X5.35Y-0.7375
X5.35Y-3.7375
X5.475Y0.1
X5.475Y-1.5875
X5.5375Y-2.9875
X5.6625Y-2.3375
X5.725Y0.2
X5.725Y-1.4875
X5.85Y-0.8375
X5.9125Y-2.2375
X6.0375Y-3.0875
X6.1Y-0.7375
X6.225Y0.1
X6.225Y-1.5875
X6.2875Y-2.9875
X6.4125Y-2.3375
X6.475Y0.2
X6.475Y-1.4875
X6.6Y-0.8375
X6.6625Y-2.2375
X6.7875Y-3.0875
X6.85Y-0.7375
X6.975Y0.1
X6.975Y-1.5875
X7.0375Y-2.9875
X7.1625Y0.1
X7.1625Y-2.3375
X7.225Y0.2
X7.225Y-1.4875
X7.35Y-0.8375
X7.4125Y0.2
X7.4125Y-2.2375
X7.4437Y-3.8375
X7.5375Y-3.0875
X7.6Y-0.7375
X7.6937Y-3.7375
X7.725Y-1.5875
X7.7875Y-2.9875
X7.9125Y0.1
X7.9125Y-2.3375
X7.975Y-1.4875
X8.1Y0.1
X8.1Y-0.8375
X8.1625Y0.2
X8.1625Y-2.2375
X8.2875Y-3.0875
X8.2875Y-3.8375
X8.35Y0.2
X8.35Y-0.7375
X8.3812Y-3.8375
X8.475Y-1.5875
X8.5375Y-2.9875
X8.5375Y-3.7375
X8.6312Y-3.7375
X8.6625Y0.1
X8.6625Y-2.3375
X8.725Y-1.4875
X8.85Y0.1
X8.85Y-0.8375
X8.9125Y0.2
X8.9125Y-2.2375
X9.1Y0.2
X9.1Y-0.7375
X9.225Y-1.5875
X9.225Y-3.8375
X9.3187Y-3.0875
X9.3187Y-3.8375
X9.4125Y0.1
X9.4125Y-2.3375
X9.475Y-1.4875
X9.475Y-3.7375
X9.5687Y-2.9875
X9.5687Y-3.7375
X9.6Y0.1
X9.6Y-0.8375
X9.6625Y0.2
X9.6625Y-2.2375
X9.6937Y-3.0875
X9.85Y0.2
X9.85Y-0.7375
X9.8812Y-2.3375
X9.9437Y-2.9875
X9.975Y-0.8375
X10.1312Y-2.2375
X10.1625Y-1.5875
X10.1625Y-3.8375
X10.225Y-0.7375
X10.2562Y-3.8375
X10.35Y0.1
X10.35Y-0.8375
X10.35Y-3.0875
X10.4125Y-1.4875
X10.4125Y-3.7375
X10.5062Y-1.9125
X10.5062Y-3.7375
X10.6Y0.2
X10.6Y-0.7375
X10.6Y-2.9875
X10.6062Y-2.1625
X11.2875Y0.1
X11.2875Y-0.8375
X11.2875Y-1.5875
X11.2875Y-3.8375
X11.5375Y0.2
X11.5375Y-0.7375
X11.5375Y-1.4875
X11.5375Y-3.7375
X12.0375Y0.1
X12.0375Y-0.8375
X12.0375Y-1.5875
X12.0375Y-3.0875
X12.0375Y-3.8375
X12.2875Y0.2
X12.2875Y-0.7375
X12.2875Y-1.4875
X12.2875Y-2.9875
X12.2875Y-3.7375
X12.7875Y0.1
X12.7875Y-0.8375
X12.7875Y-1.5875
X12.7875Y-3.8375
X13.0375Y0.2
X13.0375Y-0.7375
X13.0375Y-1.4875
X13.0375Y-3.7375
M30
