%TF.GenerationSoftware,KiCad,Pcbnew,8.0.4*%
%TF.CreationDate,2024-07-23T19:32:07+08:00*%
%TF.ProjectId,X88J,5838384a-2e6b-4696-9361-645f70636258,rev?*%
%TF.SameCoordinates,Original*%
%TF.FileFunction,Soldermask,Top*%
%TF.FilePolarity,Negative*%
%FSLAX46Y46*%
G04 Gerber Fmt 4.6, Leading zero omitted, Abs format (unit mm)*
G04 Created by KiCad (PCBNEW 8.0.4) date 2024-07-23 19:32:07*
%MOMM*%
%LPD*%
G01*
G04 APERTURE LIST*
%ADD10C,1.852000*%
%ADD11C,4.089800*%
%ADD12C,3.150000*%
%ADD13C,1.092600*%
G04 APERTURE END LIST*
D10*
%TO.C,MX104*%
X233045000Y-100012500D03*
D11*
X238125000Y-100012500D03*
D10*
X243205000Y-100012500D03*
%TD*%
D12*
%TO.C,S3*%
X242887500Y-54927500D03*
D11*
X242887500Y-70167500D03*
D12*
X266700000Y-54927500D03*
D11*
X266700000Y-70167500D03*
%TD*%
D10*
%TO.C,MX15*%
X285432500Y0D03*
D11*
X290512500Y0D03*
D10*
X295592500Y0D03*
%TD*%
%TO.C,MX35*%
X90170000Y-23812500D03*
D11*
X95250000Y-23812500D03*
D10*
X100330000Y-23812500D03*
%TD*%
%TO.C,MX53*%
X99695000Y-42862500D03*
D11*
X104775000Y-42862500D03*
D10*
X109855000Y-42862500D03*
%TD*%
%TO.C,MX78*%
X249713750Y-61912500D03*
D11*
X254793750Y-61912500D03*
D10*
X259873750Y-61912500D03*
%TD*%
%TO.C,MX5*%
X75882500Y0D03*
D11*
X80962500Y0D03*
D10*
X86042500Y0D03*
%TD*%
%TO.C,MX89*%
X152082500Y-80962500D03*
D11*
X157162500Y-80962500D03*
D10*
X162242500Y-80962500D03*
%TD*%
%TO.C,MX7*%
X118745000Y0D03*
D11*
X123825000Y0D03*
D10*
X128905000Y0D03*
%TD*%
%TO.C,MX115*%
X235426250Y-100012500D03*
D11*
X240506250Y-100012500D03*
D10*
X245586250Y-100012500D03*
%TD*%
%TO.C,MX109*%
X-2698750Y-100012500D03*
D11*
X2381250Y-100012500D03*
D10*
X7461250Y-100012500D03*
%TD*%
%TO.C,MX54*%
X118745000Y-42862500D03*
D11*
X123825000Y-42862500D03*
D10*
X128905000Y-42862500D03*
%TD*%
%TO.C,MX68*%
X47307500Y-61912500D03*
D11*
X52387500Y-61912500D03*
D10*
X57467500Y-61912500D03*
%TD*%
%TO.C,MX116*%
X259238750Y-100012500D03*
D11*
X264318750Y-100012500D03*
D10*
X269398750Y-100012500D03*
%TD*%
%TO.C,MX6*%
X99695000Y0D03*
D11*
X104775000Y0D03*
D10*
X109855000Y0D03*
%TD*%
%TO.C,MX94*%
X304482500Y-80962500D03*
D11*
X309562500Y-80962500D03*
D10*
X314642500Y-80962500D03*
%TD*%
%TO.C,MX81*%
X237807500Y-61912500D03*
D11*
X242887500Y-61912500D03*
D10*
X247967500Y-61912500D03*
%TD*%
%TO.C,MX19*%
X52070000Y0D03*
D11*
X57150000Y0D03*
D10*
X62230000Y0D03*
%TD*%
%TO.C,MX28*%
X242570000Y0D03*
D11*
X247650000Y0D03*
D10*
X252730000Y0D03*
%TD*%
%TO.C,MX108*%
X323532500Y-100012500D03*
D11*
X328612500Y-100012500D03*
D10*
X333692500Y-100012500D03*
%TD*%
%TO.C,MX9*%
X156845000Y0D03*
D11*
X161925000Y0D03*
D10*
X167005000Y0D03*
%TD*%
%TO.C,MX17*%
X323532500Y0D03*
D11*
X328612500Y0D03*
D10*
X333692500Y0D03*
%TD*%
%TO.C,MX42*%
X223520000Y-23812500D03*
D11*
X228600000Y-23812500D03*
D10*
X233680000Y-23812500D03*
%TD*%
%TO.C,MX82*%
X6826250Y-80962500D03*
D11*
X11906250Y-80962500D03*
D10*
X16986250Y-80962500D03*
%TD*%
%TO.C,MX88*%
X133032500Y-80962500D03*
D11*
X138112500Y-80962500D03*
D10*
X143192500Y-80962500D03*
%TD*%
%TO.C,MX113*%
X187801250Y-100012500D03*
D11*
X192881250Y-100012500D03*
D10*
X197961250Y-100012500D03*
%TD*%
%TO.C,MX34*%
X71120000Y-23812500D03*
D11*
X76200000Y-23812500D03*
D10*
X81280000Y-23812500D03*
%TD*%
%TO.C,MX92*%
X209232500Y-80962500D03*
D11*
X214312500Y-80962500D03*
D10*
X219392500Y-80962500D03*
%TD*%
%TO.C,MX4*%
X56832500Y0D03*
D11*
X61912500Y0D03*
D10*
X66992500Y0D03*
%TD*%
%TO.C,MX52*%
X80645000Y-42862500D03*
D11*
X85725000Y-42862500D03*
D10*
X90805000Y-42862500D03*
%TD*%
%TO.C,MX37*%
X128270000Y-23812500D03*
D11*
X133350000Y-23812500D03*
D10*
X138430000Y-23812500D03*
%TD*%
%TO.C,MX85*%
X75882500Y-80962500D03*
D11*
X80962500Y-80962500D03*
D10*
X86042500Y-80962500D03*
%TD*%
%TO.C,MX25*%
X175895000Y0D03*
D11*
X180975000Y0D03*
D10*
X186055000Y0D03*
%TD*%
%TO.C,MX18*%
X33020000Y0D03*
D11*
X38100000Y0D03*
D10*
X43180000Y0D03*
%TD*%
%TO.C,MX100*%
X23495000Y-100012500D03*
D11*
X28575000Y-100012500D03*
D10*
X33655000Y-100012500D03*
%TD*%
D11*
%TO.C,S2*%
X256063750Y-40481250D03*
X256063750Y-64293750D03*
D12*
X271303750Y-40481250D03*
X271303750Y-64293750D03*
%TD*%
D10*
%TO.C,MX38*%
X147320000Y-23812500D03*
D11*
X152400000Y-23812500D03*
D10*
X157480000Y-23812500D03*
%TD*%
%TO.C,MX31*%
X13970000Y-23812500D03*
D11*
X19050000Y-23812500D03*
D10*
X24130000Y-23812500D03*
%TD*%
%TO.C,MX106*%
X285432500Y-100012500D03*
D11*
X290512500Y-100012500D03*
D10*
X295592500Y-100012500D03*
%TD*%
D12*
%TO.C,S7*%
X171450000Y-106997500D03*
D11*
X171450000Y-91757500D03*
D12*
X71437500Y-106997500D03*
D11*
X71437500Y-91757500D03*
%TD*%
D10*
%TO.C,MX12*%
X218757500Y0D03*
D11*
X223837500Y0D03*
D10*
X228917500Y0D03*
%TD*%
%TO.C,MX72*%
X123507500Y-61912500D03*
D11*
X128587500Y-61912500D03*
D10*
X133667500Y-61912500D03*
%TD*%
%TO.C,MX74*%
X161607500Y-61912500D03*
D11*
X166687500Y-61912500D03*
D10*
X171767500Y-61912500D03*
%TD*%
%TO.C,MX90*%
X171132500Y-80962500D03*
D11*
X176212500Y-80962500D03*
D10*
X181292500Y-80962500D03*
%TD*%
%TO.C,MX10*%
X180657500Y0D03*
D11*
X185737500Y0D03*
D10*
X190817500Y0D03*
%TD*%
%TO.C,MX87*%
X113982500Y-80962500D03*
D11*
X119062500Y-80962500D03*
D10*
X124142500Y-80962500D03*
%TD*%
%TO.C,MX64*%
X323532500Y-42862500D03*
D11*
X328612500Y-42862500D03*
D10*
X333692500Y-42862500D03*
%TD*%
%TO.C,MX2*%
X18732500Y0D03*
D11*
X23812500Y0D03*
D10*
X28892500Y0D03*
%TD*%
%TO.C,MX70*%
X85407500Y-61912500D03*
D11*
X90487500Y-61912500D03*
D10*
X95567500Y-61912500D03*
%TD*%
%TO.C,MX76*%
X199707500Y-61912500D03*
D11*
X204787500Y-61912500D03*
D10*
X209867500Y-61912500D03*
%TD*%
%TO.C,MX45*%
X304482500Y-23812500D03*
D11*
X309562500Y-23812500D03*
D10*
X314642500Y-23812500D03*
%TD*%
%TO.C,MX16*%
X304482500Y0D03*
D11*
X309562500Y0D03*
D10*
X314642500Y0D03*
%TD*%
%TO.C,MX48*%
X-317500Y-42862500D03*
D11*
X4762500Y-42862500D03*
D10*
X9842500Y-42862500D03*
%TD*%
%TO.C,MX55*%
X137795000Y-42862500D03*
D11*
X142875000Y-42862500D03*
D10*
X147955000Y-42862500D03*
%TD*%
%TO.C,MX3*%
X37782500Y0D03*
D11*
X42862500Y0D03*
D10*
X47942500Y0D03*
%TD*%
%TO.C,MX63*%
X304482500Y-42862500D03*
D11*
X309562500Y-42862500D03*
D10*
X314642500Y-42862500D03*
%TD*%
%TO.C,MX46*%
X323532500Y-23812500D03*
D11*
X328612500Y-23812500D03*
D10*
X333692500Y-23812500D03*
%TD*%
%TO.C,MX67*%
X28257500Y-61912500D03*
D11*
X33337500Y-61912500D03*
D10*
X38417500Y-61912500D03*
%TD*%
%TO.C,MX59*%
X213995000Y-42862500D03*
D11*
X219075000Y-42862500D03*
D10*
X224155000Y-42862500D03*
%TD*%
%TO.C,MX110*%
X21113750Y-100012500D03*
D11*
X26193750Y-100012500D03*
D10*
X31273750Y-100012500D03*
%TD*%
%TO.C,MX60*%
X233045000Y-42862500D03*
D11*
X238125000Y-42862500D03*
D10*
X243205000Y-42862500D03*
%TD*%
%TO.C,MX32*%
X33020000Y-23812500D03*
D11*
X38100000Y-23812500D03*
D10*
X43180000Y-23812500D03*
%TD*%
%TO.C,MX97*%
X235426250Y-80962500D03*
D11*
X240506250Y-80962500D03*
D10*
X245586250Y-80962500D03*
%TD*%
%TO.C,MX51*%
X61595000Y-42862500D03*
D11*
X66675000Y-42862500D03*
D10*
X71755000Y-42862500D03*
%TD*%
D12*
%TO.C,S4*%
X238125000Y-73977500D03*
D11*
X238125000Y-89217500D03*
D12*
X261937500Y-73977500D03*
D11*
X261937500Y-89217500D03*
%TD*%
D10*
%TO.C,MX112*%
X116363750Y-100012500D03*
D11*
X121443750Y-100012500D03*
D10*
X126523750Y-100012500D03*
%TD*%
%TO.C,MX84*%
X56832500Y-80962500D03*
D11*
X61912500Y-80962500D03*
D10*
X66992500Y-80962500D03*
%TD*%
%TO.C,MX75*%
X180657500Y-61912500D03*
D11*
X185737500Y-61912500D03*
D10*
X190817500Y-61912500D03*
%TD*%
%TO.C,MX96*%
X18732500Y-80962500D03*
D11*
X23812500Y-80962500D03*
D10*
X28892500Y-80962500D03*
%TD*%
D12*
%TO.C,S5*%
X0Y-73977500D03*
D11*
X0Y-89217500D03*
D12*
X23812500Y-73977500D03*
D11*
X23812500Y-89217500D03*
%TD*%
D10*
%TO.C,MX91*%
X190182500Y-80962500D03*
D11*
X195262500Y-80962500D03*
D10*
X200342500Y-80962500D03*
%TD*%
%TO.C,MX114*%
X211613750Y-100012500D03*
D11*
X216693750Y-100012500D03*
D10*
X221773750Y-100012500D03*
%TD*%
%TO.C,MX43*%
X252095000Y-23812500D03*
D11*
X257175000Y-23812500D03*
D10*
X262255000Y-23812500D03*
%TD*%
%TO.C,MX65*%
X264318750Y-47307500D03*
D11*
X264318750Y-52387500D03*
D10*
X264318750Y-57467500D03*
%TD*%
%TO.C,MX98*%
X261620000Y-80962500D03*
D11*
X266700000Y-80962500D03*
D10*
X271780000Y-80962500D03*
%TD*%
%TO.C,MX80*%
X2063750Y-61912500D03*
D11*
X7143750Y-61912500D03*
D10*
X12223750Y-61912500D03*
%TD*%
%TO.C,MX1*%
X-5080000Y0D03*
D11*
X0Y0D03*
D10*
X5080000Y0D03*
%TD*%
%TO.C,MX41*%
X204470000Y-23812500D03*
D11*
X209550000Y-23812500D03*
D10*
X214630000Y-23812500D03*
%TD*%
D12*
%TO.C,S6*%
X190500000Y-106997500D03*
D11*
X190500000Y-91757500D03*
D12*
X76200000Y-106997500D03*
D11*
X76200000Y-91757500D03*
%TD*%
D10*
%TO.C,MX66*%
X-2698750Y-61912500D03*
D11*
X2381250Y-61912500D03*
D10*
X7461250Y-61912500D03*
%TD*%
%TO.C,MX71*%
X104457500Y-61912500D03*
D11*
X109537500Y-61912500D03*
D10*
X114617500Y-61912500D03*
%TD*%
%TO.C,MX93*%
X244951250Y-80962500D03*
D11*
X250031250Y-80962500D03*
D10*
X255111250Y-80962500D03*
%TD*%
%TO.C,MX49*%
X23495000Y-42862500D03*
D11*
X28575000Y-42862500D03*
D10*
X33655000Y-42862500D03*
%TD*%
%TO.C,MX11*%
X199707500Y0D03*
D11*
X204787500Y0D03*
D10*
X209867500Y0D03*
%TD*%
%TO.C,MX39*%
X166370000Y-23812500D03*
D11*
X171450000Y-23812500D03*
D10*
X176530000Y-23812500D03*
%TD*%
%TO.C,MX69*%
X66357500Y-61912500D03*
D11*
X71437500Y-61912500D03*
D10*
X76517500Y-61912500D03*
%TD*%
%TO.C,MX77*%
X218757500Y-61912500D03*
D11*
X223837500Y-61912500D03*
D10*
X228917500Y-61912500D03*
%TD*%
%TO.C,MX27*%
X223520000Y0D03*
D11*
X228600000Y0D03*
D10*
X233680000Y0D03*
%TD*%
%TO.C,MX62*%
X285432500Y-42862500D03*
D11*
X290512500Y-42862500D03*
D10*
X295592500Y-42862500D03*
%TD*%
%TO.C,MX57*%
X175895000Y-42862500D03*
D11*
X180975000Y-42862500D03*
D10*
X186055000Y-42862500D03*
%TD*%
%TO.C,MX107*%
X304482500Y-100012500D03*
D11*
X309562500Y-100012500D03*
D10*
X314642500Y-100012500D03*
%TD*%
%TO.C,MX56*%
X156845000Y-42862500D03*
D11*
X161925000Y-42862500D03*
D10*
X167005000Y-42862500D03*
%TD*%
%TO.C,MX111*%
X44926250Y-100012500D03*
D11*
X50006250Y-100012500D03*
D10*
X55086250Y-100012500D03*
%TD*%
%TO.C,MX101*%
X47307500Y-100012500D03*
D11*
X52387500Y-100012500D03*
D10*
X57467500Y-100012500D03*
%TD*%
%TO.C,MX13*%
X237807500Y0D03*
D11*
X242887500Y0D03*
D10*
X247967500Y0D03*
%TD*%
%TO.C,MX21*%
X90170000Y0D03*
D11*
X95250000Y0D03*
D10*
X100330000Y0D03*
%TD*%
%TO.C,MX14*%
X261620000Y0D03*
D11*
X266700000Y0D03*
D10*
X271780000Y0D03*
%TD*%
%TO.C,MX40*%
X185420000Y-23812500D03*
D11*
X190500000Y-23812500D03*
D10*
X195580000Y-23812500D03*
%TD*%
%TO.C,MX26*%
X204470000Y0D03*
D11*
X209550000Y0D03*
D10*
X214630000Y0D03*
%TD*%
%TO.C,MX95*%
X-2698750Y-80962500D03*
D11*
X2381250Y-80962500D03*
D10*
X7461250Y-80962500D03*
%TD*%
%TO.C,MX50*%
X42545000Y-42862500D03*
D11*
X47625000Y-42862500D03*
D10*
X52705000Y-42862500D03*
%TD*%
%TO.C,MX44*%
X285432500Y-23812500D03*
D11*
X290512500Y-23812500D03*
D10*
X295592500Y-23812500D03*
%TD*%
%TO.C,MX58*%
X194945000Y-42862500D03*
D11*
X200025000Y-42862500D03*
D10*
X205105000Y-42862500D03*
%TD*%
%TO.C,MX8*%
X137795000Y0D03*
D11*
X142875000Y0D03*
D10*
X147955000Y0D03*
%TD*%
%TO.C,MX99*%
X-317500Y-100012500D03*
D11*
X4762500Y-100012500D03*
D10*
X9842500Y-100012500D03*
%TD*%
%TO.C,MX103*%
X209232500Y-100012500D03*
D11*
X214312500Y-100012500D03*
D10*
X219392500Y-100012500D03*
%TD*%
%TO.C,MX36*%
X109220000Y-23812500D03*
D11*
X114300000Y-23812500D03*
D10*
X119380000Y-23812500D03*
%TD*%
%TO.C,MX86*%
X94932500Y-80962500D03*
D11*
X100012500Y-80962500D03*
D10*
X105092500Y-80962500D03*
%TD*%
%TO.C,MX20*%
X71120000Y0D03*
D11*
X76200000Y0D03*
D10*
X81280000Y0D03*
%TD*%
%TO.C,MX73*%
X142557500Y-61912500D03*
D11*
X147637500Y-61912500D03*
D10*
X152717500Y-61912500D03*
%TD*%
%TO.C,MX30*%
X-5080000Y-23812500D03*
D11*
X0Y-23812500D03*
D10*
X5080000Y-23812500D03*
%TD*%
%TO.C,MX47*%
X242570000Y-23812500D03*
D11*
X247650000Y-23812500D03*
D10*
X252730000Y-23812500D03*
%TD*%
%TO.C,MX105*%
X256857500Y-100012500D03*
D11*
X261937500Y-100012500D03*
D10*
X267017500Y-100012500D03*
%TD*%
%TO.C,MX33*%
X52070000Y-23812500D03*
D11*
X57150000Y-23812500D03*
D10*
X62230000Y-23812500D03*
%TD*%
%TO.C,MX61*%
X256857500Y-42862500D03*
D11*
X261937500Y-42862500D03*
D10*
X267017500Y-42862500D03*
%TD*%
%TO.C,MX83*%
X37782500Y-80962500D03*
D11*
X42862500Y-80962500D03*
D10*
X47942500Y-80962500D03*
%TD*%
D12*
%TO.C,S1*%
X245268750Y-16827500D03*
D11*
X245268750Y-32067500D03*
D12*
X269081250Y-16827500D03*
D11*
X269081250Y-32067500D03*
%TD*%
D10*
%TO.C,MX79*%
X261620000Y-23812500D03*
D11*
X266700000Y-23812500D03*
D10*
X271780000Y-23812500D03*
%TD*%
%TO.C,MX102*%
X128270000Y-100012500D03*
D11*
X133350000Y-100012500D03*
D10*
X138430000Y-100012500D03*
%TD*%
D13*
%TO.C,J2*%
X321310000Y-52710000D03*
X322326000Y-57790000D03*
X320294000Y-57790000D03*
%TD*%
M02*
